<svg viewBox="0 0 330 358" version="1.1" xmlns="http://www.w3.org/2000/svg" desc="Created with imagetracer.js version 1.2.6" ><path fill="rgb(1,1,2)" stroke="rgb(1,1,2)" stroke-width="1" opacity="0.00392156862745098" d="M 0 0 L 0.5 0 L 329.5 0 L 330 0 L 330 0.5 L 330 357.5 L 330 358 L 329.5 358 L 0.5 358 L 0 358 L 0 357.5 L 0 0.5 L 0 0 Z M 170 10 L 168 12 L 168 15 Q 167 15 167 17 Q 169 18 167 19 L 168 20 L 167 21 L 167 28 Q 165 29 167 30 Q 167 30 166 30 L 165 31 L 164 31 L 161 34 L 160 34 L 155 39 L 154 39 L 151 42 Q 152 44 150 45 L 150 102 L 150 102 Q 151 102 154 102 L 157 100 L 158 100 L 163 96 L 164 96 L 169 91 L 171 91 L 173 94 L 173 94 L 169 94 L 164 99 Q 162 99 162 100 L 161 100 L 158 103 L 157 103 L 155 105 Q 153 105 153 106 L 152 106 L 148 110 L 148 114 L 150 116 L 150 120 L 149 121 Q 149 122 150 123 L 150 132 L 149 133 L 149 148 Q 150 148 150 150 L 153 152 L 154 152 L 161 160 L 161 161 L 165 164 L 166 164 L 167 166 Q 167 167 168 168 L 168 170 L 170 171 Q 172 171 173 171 L 173 169 L 176 169 Q 176 169 176 167 L 177 166 L 177 164 L 179 164 L 180 163 L 180 164 L 180 169 L 181 170 Q 181 170 180 170 L 179 171 L 178 171 L 177 172 L 176 172 L 175 173 L 174 173 Q 172 174 172 176 L 171 176 L 170 177 Q 169 177 169 176 L 166 172 L 164 172 L 162 170 L 160 170 L 159 170 L 161 168 L 161 165 L 157 160 L 157 159 L 156 157 L 155 157 L 153 156 L 153 154 Q 152 154 151 154 L 146 149 Q 144 149 144 148 L 143 148 L 140 146 L 141 145 Q 144 144 145 146 Q 145 146 145 145 L 146 144 L 146 113 L 147 112 L 147 106 L 146 105 L 146 101 L 147 100 Q 148 96 146 96 Q 146 94 147 94 L 147 87 Q 145 86 147 85 L 147 77 Q 146 76 146 75 L 142 70 L 141 70 L 139 69 Q 139 67 138 67 L 138 65 Q 137 64 137 62 L 136 61 L 136 59 L 134 56 L 131 56 L 128 59 Q 128 60 129 61 Q 130 63 128 64 L 128 66 L 123 71 Q 121 71 121 72 L 119 72 L 119 74 L 118 74 Q 117 75 116 75 Q 113 76 114 80 L 112 82 Q 112 82 114 82 L 115 84 L 115 94 L 114 95 L 114 107 L 113 108 Q 113 109 113 110 L 109 110 L 109 109 L 110 108 L 110 101 L 108 98 L 104 98 L 101 100 L 100 100 L 98 102 L 97 102 L 95 104 L 93 104 L 91 106 Q 89 106 89 107 L 88 107 L 86 109 Q 84 109 84 110 L 83 110 L 81 112 L 80 112 L 78 114 Q 76 114 76 115 L 75 115 L 74 116 L 73 116 L 68 120 L 67 120 L 65 122 Q 63 122 63 123 L 62 123 L 59 126 L 58 126 L 56 128 L 56 261 Q 57 261 57 263 L 60 265 L 61 265 L 61 266 L 60 267 L 63 270 Q 63 271 64 272 L 64 273 L 66 273 L 66 275 L 68 276 L 69 276 L 69 278 Q 70 278 70 280 L 78 288 L 78 289 L 80 290 L 81 290 L 82 292 L 82 293 L 84 294 L 85 294 L 86 296 L 86 297 L 88 298 L 89 298 L 97 306 L 98 306 Q 100 307 99 309 Q 99 309 102 309 L 104 311 Q 106 310 105 313 L 110 317 Q 111 317 112 318 L 113 318 L 114 319 L 115 318 L 119 318 L 119 318 Q 119 319 119 321 L 118 322 L 118 338 L 121 340 L 136 340 L 139 337 L 139 333 L 140 332 L 140 333 L 140 336 L 145 340 L 147 340 L 150 342 L 152 342 L 154 344 Q 155 344 156 345 Q 158 345 159 346 L 161 346 L 164 348 L 165 348 L 166 349 L 167 349 L 168 350 L 173 350 L 175 348 L 178 348 L 180 346 Q 182 346 183 346 L 183 344 Q 184 344 187 344 L 190 342 L 191 342 L 192 341 L 193 341 L 194 340 L 195 340 L 197 338 Q 198 338 199 337 L 200 337 L 201 336 L 202 336 L 203 335 L 204 335 L 206 333 Q 207 333 208 332 L 209 332 L 210 331 L 211 331 L 211 329 L 213 329 Q 213 328 215 328 L 220 324 Q 221 324 222 323 L 223 323 L 226 320 L 227 320 L 230 317 L 231 317 L 235 313 L 236 313 L 238 311 Q 240 312 239 310 L 241 308 L 242 308 L 246 304 L 247 304 L 247 302 L 249 302 L 250 301 L 250 300 L 252 298 L 253 298 L 254 297 L 254 295 L 256 295 L 258 293 Q 257 290 260 291 L 262 289 L 262 288 L 264 286 L 265 286 L 266 285 L 266 284 L 273 277 Q 273 275 274 275 L 274 274 L 276 272 L 276 271 Q 277 269 279 269 L 279 268 L 282 265 Q 282 262 282 261 L 284 261 L 284 261 L 284 128 L 283 126 L 282 126 L 279 123 Q 277 123 277 122 L 276 122 L 273 119 Q 271 119 271 118 L 270 118 L 265 114 Q 263 114 263 113 L 262 113 L 261 112 L 260 112 L 257 109 Q 255 109 255 108 L 254 108 L 252 106 Q 250 106 250 105 L 249 105 L 247 103 Q 245 103 245 102 L 244 102 L 243 101 L 242 101 L 239 98 Q 236 99 236 97 L 233 97 L 232 98 L 233 99 L 233 99 L 232 98 L 231 99 L 231 103 L 231 103 L 230 103 L 230 81 Q 229 80 229 78 L 226 74 Q 223 74 223 74 L 223 72 L 222 72 L 220 70 L 219 70 L 217 69 Q 217 67 216 67 L 216 65 Q 215 64 215 62 L 214 61 L 214 59 L 213 57 Q 210 57 209 57 L 209 59 L 208 60 L 208 64 L 208 64 L 206 64 Q 206 65 206 68 L 207 69 L 206 70 L 206 71 L 205 71 Q 204 72 203 72 L 201 74 L 200 74 L 198 76 Q 198 77 197 78 L 197 101 L 196 102 L 196 111 L 197 112 L 197 143 L 197 143 L 198 143 L 202 143 L 204 141 Q 205 141 206 140 L 207 140 L 210 137 L 211 138 L 214 138 L 214 139 Q 214 139 213 139 L 212 140 L 211 140 L 210 141 L 208 141 L 206 143 Q 204 143 204 144 L 203 144 Q 201 145 201 147 L 200 147 L 199 148 L 197 148 L 195 150 L 193 150 L 193 149 L 194 148 L 194 110 L 191 106 L 190 106 L 187 104 L 188 103 L 189 104 Q 190 104 191 103 L 192 103 L 193 102 L 194 102 L 194 102 L 194 98 L 193 97 L 193 54 L 194 53 L 194 47 L 193 46 Q 193 43 194 43 L 191 40 L 191 39 L 189 36 L 188 36 L 183 31 L 182 31 L 178 28 Q 178 26 177 26 Q 178 22 176 22 L 176 16 L 174 14 L 174 13 L 172 10 L 170 10 Z M 85 312 Q 85 312 85 315 L 84 316 Q 83 319 85 320 Q 85 321 84 322 L 84 324 L 83 325 L 87 328 L 96 328 L 99 325 L 99 316 Q 98 315 98 314 L 97 312 L 86 312 L 85 312 Z M 67 328 L 64 331 L 64 339 L 67 341 L 68 340 Q 70 340 71 341 L 74 341 L 76 339 Q 78 339 78 339 L 78 331 L 77 329 L 68 329 L 67 328 Z M 105 336 L 103 338 Q 103 339 102 340 L 102 350 L 105 352 L 117 352 L 117 352 L 117 351 L 118 350 L 118 339 L 116 336 L 105 336 Z " /><path fill="rgb(1,1,2)" stroke="rgb(1,1,2)" stroke-width="1" opacity="0.00392156862745098" d="M 230.5 110 Q 231.25 110.25 231 111.5 L 233 113.5 L 233 118.5 L 235.5 121 L 236.5 121 Q 236.75 122.25 238.5 122 L 240.5 124 L 241.5 124 Q 241.75 125.25 243.5 125 L 248.5 129 L 249.5 129 Q 249.75 130.25 251.5 130 L 253.5 132 L 254.5 132 Q 254.75 133.25 256.5 133 L 258.5 135 L 259.5 135 L 263 138.5 L 263 160.5 L 264 161.5 L 263 162.5 L 263 174.5 Q 265 175.5 263 176.5 Q 262.5 179 264 179.5 Q 262 180.5 264 181.5 L 264 192.5 L 263 193.5 Q 265 194.5 263 195.5 L 263 209.5 Q 264.5 210 264 212.5 Q 262.25 213.25 263 216.5 Q 264.75 217.25 264 220.5 L 263 221.5 L 263 254.5 Q 261.75 254.75 262 256.5 L 257 261.5 L 257 262.5 L 255 264.5 L 255 265.5 L 243 277.5 L 243 279 L 241.5 279 L 239 281.5 L 239 282.5 L 237.5 284 L 236.5 284 L 226.5 294 L 225.5 294 L 222.5 297 L 221.5 297 L 218.5 300 L 217.5 300 L 214.5 303 L 213.5 303 L 211.5 305 L 210.5 305 L 207.5 308 L 206.5 308 L 204.5 310 L 203.5 310 L 198.5 314 L 197.5 314 Q 197.25 315.25 195.5 315 L 193.5 317 L 191.5 317 L 186.5 321 L 184.5 321 L 182.5 323 L 181.5 323 L 180.5 324 L 179.5 324 L 176.5 326 L 174.5 326 Q 174.25 327.25 172.5 327 L 170.5 329 Q 168.75 328.75 168.5 330 Q 166.5 330 166 330 Q 166.5 327.88 164.5 327 Q 162.75 327.25 162.5 326 L 158.5 326 L 157.5 327 L 152.5 327 Q 151.5 326.5 152.5 326 Q 153.75 326.25 154 325.5 L 153.5 325 L 149.5 325 Q 149 326.5 146.5 326 L 145 324.5 L 145.5 324 L 156.5 324 L 158 322.5 L 158 307.5 L 158 307 L 160 307 L 160 309 Q 160.75 309 163.5 309 L 165.5 307 L 166.5 308 Q 168.25 308.25 168.5 307 L 172.5 307 Q 173 308.5 175.5 308 L 178 305.5 L 178 291.5 Q 176.75 291.25 177 289.5 L 175.5 288 L 162.5 288 L 158 292.5 Q 157.5 295 159 295.5 L 159 298.5 L 158 299.5 L 158 305.5 L 157.5 306 L 155.5 304 L 142.5 304 L 141 305.5 L 141 316.5 L 139 318.5 L 139 322.5 L 139 323 L 141 323 L 141 324.5 L 141.5 325 L 142.5 324 L 144 325.5 L 143.5 326 L 142.5 325 L 141.5 326 L 140.5 325 L 140 325.5 L 140 326.5 L 138.5 328 L 138 327.5 L 139 326.5 L 137 324.5 L 137 320.5 L 135.5 319 Q 135 320.5 132.5 320 Q 131.5 318 130.5 320 L 126.5 320 L 126 320 L 126 317 Q 126.5 317 128.5 317 L 129.5 316 L 134.5 316 L 136 314.5 L 136 310.5 L 132.5 307 L 131.5 307 Q 131.25 305.75 129.5 306 L 126.5 303 L 125.5 303 L 123.5 301 L 122.5 301 L 118.5 297 L 117.5 297 L 113.5 293 L 112.5 293 L 106.5 287 L 105.5 287 L 92 273.5 L 92 272.5 L 90.5 271 Q 88.25 271.75 89 269.5 L 85 265.5 L 85 264.5 L 81 260.5 L 81 259.5 L 78 256.5 Q 78.25 254.75 77 254.5 L 77 247.5 L 76 246.5 L 76 238.5 Q 77.25 238.25 77 236.5 L 76 235.5 L 76 216.5 L 75 215.5 L 75 186.5 L 74 185.5 L 74 178.5 L 75 177.5 L 75 171.5 L 76 170.5 L 76 162.5 L 75 161.5 L 75 153.5 L 76 152.5 L 76 139.5 Q 77.25 139.25 77 137.5 L 78.5 136 L 79.5 136 L 84.5 132 L 85.5 132 Q 85.75 130.75 87.5 131 L 89.5 129 L 91.5 129 L 92.5 128 L 93.5 128 Q 93.75 126.75 95.5 127 L 97.5 125 Q 99.25 125.25 99.5 124 L 101.5 124 L 107.5 130 L 111.5 130 L 112.5 131 Q 114.5 131 115 131 L 115 130.5 L 115 122.5 L 117.5 120 Q 119.25 119.75 119.5 121 Q 120 119.5 122.5 120 L 124.5 118 L 126 118 Q 125.5 115.88 127.5 115 Q 129.75 115.75 129 119.5 Q 127.25 120.25 128 123.5 L 129 124.5 L 129 131.5 Q 127.75 131.75 128 133.5 Q 130 134.5 128 135.5 L 130 137.5 Q 129.75 139.25 131 139.5 Q 130.5 140.5 128.5 140 L 127.5 139 L 125.5 139 L 123.5 137 Q 121.75 137.25 121.5 136 L 119.5 136 L 118.5 135 L 117.5 135 L 114.5 133 L 111.5 133 L 109.5 131 Q 107 131.5 106.5 130 L 103.5 130 L 102.5 131 Q 100.5 131 100 131 L 100 131.5 L 100 137.5 Q 101.5 138 101 140.5 L 103 142.5 L 103 144.5 Q 101.75 144.75 102 146.5 L 103 147.5 Q 103 149.5 103 150 L 101 150 L 101 148.5 L 100.5 148 L 99.5 149 L 98.5 148 L 95.5 148 L 93.5 146 L 92.5 147 Q 89.75 147 89 147 L 89 149 L 87.5 149 L 87 149.5 L 88 150.5 L 88 186.5 L 89 187.5 L 87 190.5 L 87 194.5 L 89 197.5 L 89 199.5 Q 87.25 200.25 88 203.5 L 89 204.5 L 89 209.5 Q 87.75 209.75 88 211.5 L 89 212.5 L 89 220.5 L 88 221.5 L 88 228.5 Q 89.25 228.75 89 230.5 L 88 231.5 L 88 236.5 L 89 237.5 L 89 242.5 Q 87.5 243 88 245.5 Q 89.25 245.75 89 247.5 L 90.5 249 Q 92.25 248.75 92.5 250 L 96.5 250 L 98.5 252 L 99.5 252 L 100.5 251 L 103.5 254 L 106.5 254 L 109.5 256 L 113.5 256 L 115.5 258 L 118.5 258 L 120.5 260 L 123.5 260 L 124.5 261 L 125.5 261 L 128.5 263 Q 131 262.5 131.5 264 L 134.5 264 L 137.5 266 L 141.5 266 L 143.5 268 L 146.5 268 L 147.5 269 L 148.5 269 Q 148.75 270.25 150.5 270 L 152 271.5 L 152 272.5 Q 153.25 272.75 153 274.5 L 160.5 282 L 163.5 282 L 164.5 283 Q 167 282.5 167.5 284 L 171.5 284 L 173.5 282 L 174.5 282 Q 175.5 284 176.5 282 Q 178.5 282 179 282 L 179 283.5 L 181 286.5 L 181 290.5 L 180 291.5 L 182.5 294 L 184.5 294 L 186.5 292 L 189.5 292 L 191.5 290 Q 192.75 290.25 193 289.5 Q 191 288.5 193 287.5 Q 192.75 285.75 194 285.5 L 194 282.5 Q 192.75 282.25 193 280.5 L 191.5 279 L 190.5 279 L 187.5 277 L 185.5 277 Q 185.25 278.25 183.5 278 Q 182.5 277.5 183.5 277 L 184.5 277 L 188 273.5 L 188 272.5 L 191.5 269 Q 193.25 269.25 193.5 268 L 197.5 268 L 199.5 266 L 202.5 266 L 205.5 264 L 208.5 264 L 209.5 263 L 211.5 263 Q 212 261.5 214.5 262 L 217.5 260 L 219.5 260 L 221.5 258 Q 222.5 260 223.5 258 L 225.5 258 L 228.5 256 L 231.5 256 L 232.5 255 L 234.5 255 Q 235 253.5 237.5 254 L 239.5 252 L 242.5 252 L 243.5 251 L 245.5 251 L 246.5 250 L 248.5 250 L 249.5 249 L 251 249 L 251 247.5 L 252 246.5 L 252 148.5 L 249.5 146 L 246.5 146 L 243.5 148 L 239.5 148 L 237.5 150 L 236.5 150 L 236 149.5 L 240 145.5 L 240 131.5 L 239 130.5 L 239 129 Q 238.25 129 235.5 129 L 234.5 130 L 232.5 130 L 229.5 132 L 226.5 132 Q 225.5 131.5 226.5 131 L 227.5 131 L 230 128.5 L 230 110.5 L 230.5 110 Z " /><path fill="rgb(155,142,79)" stroke="rgb(155,142,79)" stroke-width="1" opacity="0.16862745098039217" d="M 232.5 97 L 235.5 97 Q 236 98.5 238.5 98 L 242.5 102 L 244.5 102 Q 244.75 103.25 246.5 103 L 248 104.5 Q 247.75 105.75 248.5 106 Q 249.5 104 250.5 106 L 251.5 106 L 253.5 108 L 254.5 108 Q 254.75 109.25 256.5 109 L 259.5 112 L 260.5 112 L 261.5 113 L 262.5 113 Q 262.75 114.25 264.5 114 L 269.5 118 L 270.5 118 Q 270.75 119.25 272.5 119 L 275.5 122 L 276.5 122 Q 276.75 123.25 278.5 123 L 281.5 126 L 282.5 126 L 284 127.5 L 284 260.5 L 284 261 L 282 261 Q 282 261.75 282 264.5 L 279 267.5 L 279 269 Q 276.87 268.5 276 270.5 L 276 271.5 L 274 273.5 L 274 274.5 Q 272.75 274.75 273 276.5 L 266 283.5 L 266 284.5 L 264.5 286 L 263.5 286 L 262 287.5 L 262 288.5 L 259.5 291 Q 257.25 290.25 258 292.5 L 255.5 295 L 254 295 L 254 296.5 L 252.5 298 L 251.5 298 L 250 299.5 L 250 300.5 L 248.5 302 L 247 302 L 247 304 L 245.5 304 L 241.5 308 L 240.5 308 L 239 309.5 Q 239.75 311.75 237.5 311 L 235.5 313 L 234.5 313 L 230.5 317 L 229.5 317 L 226.5 320 L 225.5 320 L 222.5 323 L 221.5 323 Q 221.25 324.25 219.5 324 L 214.5 328 Q 212.75 327.75 212.5 329 L 211 329 L 211 331 L 209.5 331 Q 209 332.5 206.5 332 L 203.5 335 L 202.5 335 L 201.5 336 L 200.5 336 L 199.5 337 L 198.5 337 Q 198.25 338.25 196.5 338 L 194.5 340 L 193.5 340 L 192.5 341 L 191.5 341 L 190.5 342 L 189.5 342 L 186.5 344 Q 183.75 344 183 344 L 183 346 Q 182.25 346 179.5 346 L 177.5 348 L 174.5 348 L 172.5 350 L 167.5 350 L 166.5 349 L 165.5 349 L 164.5 348 L 163.5 348 L 160.5 346 L 158.5 346 Q 158 344.5 155.5 345 Q 155.25 343.75 153.5 344 L 151.5 342 L 149.5 342 L 146.5 340 L 144.5 340 L 140 335.5 L 140 332.5 L 139.5 332 L 139 332.5 L 139 336.5 L 135.5 340 L 120.5 340 L 118.5 338 L 118 338.5 L 118 349.5 L 117 350.5 L 117 352 L 116.5 352 L 104.5 352 L 102 349.5 L 102 339.5 Q 103.25 339.25 103 337.5 L 104.5 336 L 115.5 336 L 117.5 338 L 118 337.5 L 118 321.5 L 119 320.5 Q 119 318.5 119 318 Q 118.5 318 116.5 318 L 115.5 317 L 114 317 L 114 318.5 L 113.5 319 L 112.5 318 L 111.5 318 Q 111.25 316.75 109.5 317 L 105 312.5 Q 105.75 310.25 103.5 311 L 101.5 309 Q 99.5 309 99 309 Q 99.5 306.88 97.5 306 L 96.5 306 L 94 303.5 Q 94.75 301.25 92.5 302 L 88.5 298 L 87.5 298 L 86 296.5 L 86 295.5 L 84.5 294 L 83.5 294 L 82 292.5 L 82 291.5 L 80.5 290 L 79.5 290 L 78 288.5 L 78 287.5 L 70 279.5 Q 70.25 277.75 69 277.5 L 69 276 L 67.5 276 L 66 274.5 L 66 273 L 64 273 L 64 271.5 Q 62.75 271.25 63 269.5 L 60 266.5 L 61 265.5 L 60.5 265 L 59.5 265 L 58 263.5 L 58 262.5 L 56 260.5 L 56 183.5 L 56.5 183 L 58.5 185 L 60 185 Q 60 185.75 60 188.5 L 59 189.5 L 59 257.5 Q 60.5 258 60 260.5 L 62 262.5 L 62 263.5 L 64 265.5 L 64 266.5 L 66 268.5 L 66 269.5 L 70 273.5 L 70 274.5 L 76 280.5 L 76 281.5 L 94.5 300 L 96 300 L 96 302 L 97.5 302 L 101.5 306 L 102.5 306 L 107.5 311 L 108.5 311 L 112.5 315 L 113.5 315 Q 113.75 316.25 115.5 316 L 116.5 315 L 122.5 315 L 123 315 L 123 317 L 126 317 L 126 320 L 126.5 320 L 130.5 320 Q 131.5 318 132.5 320 Q 135 320.5 135.5 319 L 137 320.5 L 137 324.5 L 139.5 327 Q 140.25 326.75 140 325.5 L 141 324.5 L 141 323 L 139 323 L 139 322.5 L 139 318.5 L 141 316.5 L 141 305.5 L 142.5 304 L 155.5 304 L 157.5 306 L 158 305.5 L 158 299.5 Q 159.75 298.75 159 295.5 Q 157.5 295 158 292.5 L 162.5 288 L 175.5 288 L 177 289.5 Q 176.75 291.25 178 291.5 L 178 305.5 L 175.5 308 L 173.5 308 L 172.5 307 L 168.5 307 Q 168.25 308.25 166.5 308 L 165.5 307 L 163.5 309 Q 160.75 309 160 309 L 160 307 L 158 307 L 158 307.5 L 158 322.5 L 156.5 324 L 145.5 324 Q 145.25 325.25 143.5 325 L 142.5 324 L 141 325.5 L 141.5 326 L 148.5 326 L 149.5 325 L 153.5 325 Q 154.5 325.5 153.5 326 Q 152.25 325.75 152 326.5 L 152.5 327 L 157.5 327 Q 158.25 325.25 161.5 326 Q 162.5 326.5 161.5 327 Q 158.5 326.5 158 328.5 Q 157.25 330.75 159.5 330 L 161.5 332 L 162.5 332 L 165.5 335 Q 167.25 334.75 167.5 336 L 174.5 336 Q 175 334.5 177.5 335 Q 178.5 335.5 177.5 336 L 176.5 336 L 173.5 338 L 167.5 338 L 166.5 337 L 165.5 337 L 164.5 336 L 163.5 336 L 160.5 334 L 158.5 334 Q 158.25 332.75 156.5 333 L 154.5 331 L 153.5 331 L 152.5 330 L 151.5 330 L 148.5 328 L 143.5 328 Q 141.25 328.75 142 332.5 Q 143.25 332.75 143 334.5 L 145.5 337 Q 147.25 336.75 147.5 338 L 149.5 338 L 150.5 339 L 151.5 339 L 152.5 340 L 153.5 340 L 156.5 342 L 158.5 342 L 160.5 344 L 162.5 344 L 164.5 346 L 167.5 346 Q 168.25 347.75 171.5 347 Q 172.25 345.25 175.5 346 L 177.5 344 L 179.5 344 L 182.5 342 L 184.5 342 L 186.5 340 L 187.5 340 L 190.5 338 L 192.5 338 L 194.5 336 L 195.5 336 L 196.5 335 L 197.5 335 L 198.5 334 L 199.5 334 Q 199.75 332.75 201.5 333 L 203.5 331 L 204.5 331 L 205.5 330 L 206.5 330 Q 206.75 328.75 208.5 329 L 210.5 327 L 211.5 327 L 214.5 324 L 215.5 324 Q 215.75 322.75 217.5 323 L 220.5 320 L 221.5 320 L 223.5 318 L 224.5 318 L 227.5 315 L 228.5 315 L 232.5 311 L 233.5 311 L 236.5 308 L 237.5 308 L 242.5 303 L 243.5 303 L 265 281.5 L 265 280.5 L 270 275.5 L 270 274.5 L 273 271.5 L 273 270.5 L 277 266.5 L 277 265.5 L 280 262.5 Q 279.75 260.75 281 260.5 L 281 244.5 L 280 243.5 L 280 161.5 L 281 160.5 L 281 128.5 L 279.5 127 L 278.5 127 L 275.5 124 L 274.5 124 L 273.5 123 L 272.5 123 Q 272.25 121.75 270.5 122 L 268.5 120 L 267.5 120 Q 267.25 118.75 265.5 119 L 262.5 116 L 260.5 116 L 258.5 114 L 257.5 114 L 255.5 112 L 254.5 112 L 249.5 108 L 247.5 108 Q 247.25 106.75 245.5 107 L 242.5 104 L 241.5 104 Q 241.25 102.75 239.5 103 L 236.5 100 Q 234.5 100 234 100 Q 234 100.5 234 102.5 L 233 103.5 L 233 107.5 L 236.5 111 L 237.5 111 L 238.5 112 L 239.5 112 Q 239.75 113.25 241.5 113 L 243.5 115 L 244.5 115 Q 244.75 116.25 246.5 116 L 248.5 118 L 249.5 118 Q 249.75 119.25 251.5 119 L 256.5 123 L 257.5 123 L 258.5 124 L 259.5 124 Q 259.75 125.25 261.5 125 L 263.5 127 L 264.5 127 Q 264.75 128.25 266.5 128 L 269.5 131 L 270.5 131 L 272 132.5 L 272 138.5 L 273 139.5 L 273 146.5 L 272.5 147 L 271 145.5 L 271 135.5 Q 269.75 135.25 270 133.5 L 266.5 130 L 265.5 130 Q 265.25 128.75 263.5 129 L 261.5 127 L 260.5 127 L 258.5 125 L 257.5 125 L 254.5 122 L 253.5 122 L 252.5 121 L 251.5 121 L 250.5 120 L 249.5 120 L 248.5 119 L 247.5 119 L 246.5 118 L 245.5 118 L 244.5 117 L 243.5 117 L 242.5 116 L 241.5 116 L 240.5 115 L 239.5 115 L 238.5 114 L 237.5 114 L 236.5 113 L 235.5 113 L 232.5 111 L 231.5 112 L 231 111.5 L 232 110.5 L 231.5 110 Q 229.63 110.5 230 109.5 L 230 103.5 L 231 102.5 L 231 98.5 L 232.5 97 Z M 282 163 L 281 164 L 281 172 Q 282 173 282 172 L 282 164 L 282 163 Z M 282 174 L 281 175 L 281 222 Q 282 223 282 222 L 282 175 L 282 174 Z M 162 292 L 162 293 L 162 299 L 161 300 L 161 304 L 163 305 L 164 305 Q 165 307 166 305 L 167 306 Q 169 307 170 305 L 174 305 L 174 305 L 174 305 L 174 293 L 174 292 L 174 292 L 163 292 L 162 292 Z M 151 307 L 150 308 L 143 308 L 142 308 L 142 309 L 142 321 L 142 321 L 143 321 L 149 321 L 150 322 L 153 322 L 154 321 L 155 321 L 155 320 L 156 319 Q 156 317 155 317 L 155 312 Q 156 311 156 310 L 154 307 L 151 307 Z M 123 322 L 121 324 L 121 335 L 124 337 L 129 337 L 130 336 L 135 336 L 136 335 Q 137 332 135 332 L 135 328 Q 137 327 136 324 L 135 322 L 123 322 Z M 108 339 L 107 340 L 105 340 L 105 341 L 105 348 L 107 349 L 115 349 L 115 349 L 115 349 L 115 341 L 114 339 L 108 339 Z " /><path fill="rgb(155,142,79)" stroke="rgb(155,142,79)" stroke-width="1" opacity="0.16862745098039217" d="M 250.5 189 Q 252.37 188.5 252 189.5 L 252 246.5 L 251 247.5 L 251 249 L 249.5 249 L 248.5 250 L 246.5 250 L 245.5 251 L 243.5 251 L 242.5 252 L 239.5 252 L 237.5 254 L 235.5 254 L 234.5 255 Q 232 254.5 231.5 256 L 228.5 256 L 227.5 257 Q 225.75 256.75 225.5 258 L 223.5 258 L 222.5 259 L 221.5 258 L 219.5 260 L 217.5 260 L 214.5 262 L 212.5 262 L 211.5 263 Q 209 262.5 208.5 264 L 205.5 264 L 202.5 266 L 199.5 266 L 197.5 268 L 193.5 268 Q 193.25 269.25 191.5 269 L 188 272.5 L 188 273.5 L 185 276.5 Q 185.5 277.5 187.5 277 L 188.5 278 L 189.5 278 Q 189.75 279.25 191.5 279 L 193 280.5 Q 192.75 282.25 194 282.5 L 194 285.5 L 192 288.5 L 193 289.5 L 192.5 290 L 191.5 290 L 189.5 292 L 186.5 292 L 184.5 294 L 182.5 294 L 180 291.5 L 181 290.5 L 181 286.5 L 179 283.5 L 179 282 L 178.5 282 L 173.5 282 L 171.5 284 L 167.5 284 L 164.5 282 L 160.5 282 L 153 274.5 L 153 273.5 Q 151.75 273.25 152 271.5 L 150.5 270 L 149.5 270 L 146.5 268 L 143.5 268 L 141.5 266 L 137.5 266 L 134.5 264 L 131.5 264 Q 131 262.5 128.5 263 L 127.5 262 L 126.5 262 L 123.5 260 L 120.5 260 L 118.5 258 L 115.5 258 L 113.5 256 L 109.5 256 L 107.5 254 L 103.5 254 L 100.5 251 Q 100.25 252.25 98.5 252 L 95.5 249 L 94.5 250 L 92.5 250 L 90.5 248 L 89 248 L 89 246.5 L 88 245.5 L 89 244.5 L 89 196.5 L 87 193.5 Q 87 191.5 87 191 Q 89.13 190.5 90 192.5 L 90 193.5 Q 91.25 193.75 91 195.5 L 90 196.5 L 90 201.5 Q 91.5 202 91 204.5 L 90 205.5 L 90 213.5 Q 92 214.5 90 215.5 Q 89.75 217.25 91 217.5 L 91 228.5 Q 89.25 229.25 90 232.5 Q 91.75 233.25 91 236.5 L 90 237.5 L 90 242.5 Q 91.25 242.75 91 244.5 L 92.5 246 Q 94.25 245.75 94.5 247 L 96.5 247 L 97.5 248 L 99.5 248 L 100.5 249 Q 102.25 248.75 102.5 250 L 104.5 250 L 107.5 252 L 110.5 252 L 113.5 254 L 115.5 254 L 116.5 255 L 118.5 255 L 119.5 256 Q 122 255.5 122.5 257 L 124.5 257 L 127.5 259 Q 130 258.5 130.5 260 L 133.5 260 L 136.5 262 L 138.5 262 L 140.5 264 L 144.5 264 L 147.5 266 L 149.5 266 Q 149.75 267.25 151.5 267 L 155 270.5 L 155 271.5 Q 156.25 271.75 156 273.5 L 161.5 279 Q 163.25 278.75 163.5 280 L 176.5 280 Q 176.75 278.75 178.5 279 L 186 271.5 L 186 270.5 L 188.5 268 L 189.5 268 L 190.5 267 L 191.5 267 L 194.5 265 Q 197 265.5 197.5 264 L 200.5 264 L 203.5 262 L 205.5 262 L 206.5 261 L 208.5 261 L 209.5 260 L 211.5 260 Q 212 258.5 214.5 259 L 217.5 257 Q 220 257.5 220.5 256 L 223.5 256 L 226.5 254 L 228.5 254 L 229.5 253 L 231.5 253 Q 232 251.5 234.5 252 L 237.5 250 L 239.5 250 L 240.5 249 Q 243 249.5 243.5 248 L 246.5 248 L 249 245.5 L 249 190.5 L 250.5 189 Z M 184 281 L 182 283 L 182 290 L 182 290 L 183 290 L 189 290 L 190 289 L 190 283 L 190 282 L 189 282 L 188 281 L 184 281 Z " /><path fill="rgb(155,142,79)" stroke="rgb(155,142,79)" stroke-width="1" opacity="0.16862745098039217" d="M 164.5 271 L 165.5 271 L 168.5 273 L 171.5 273 L 172 273.5 L 171.5 274 L 167.5 274 Q 167.25 272.75 165.5 273 L 164 271.5 L 164.5 271 Z " /><path fill="rgb(155,142,79)" stroke="rgb(155,142,79)" stroke-width="1" opacity="0.16862745098039217" d="M 85 312 L 85.5 312 L 96.5 312 L 98 313.5 Q 97.75 315.25 99 315.5 L 99 324.5 L 95.5 328 L 86.5 328 L 83 324.5 L 84 323.5 L 84 321.5 Q 85.25 321.25 85 319.5 Q 83.25 318.75 84 315.5 L 85 314.5 Q 85 312.5 85 312 Z M 88 314 L 86 316 L 86 324 L 86 324 L 87 324 L 96 324 L 96 324 L 96 324 L 96 316 L 95 314 L 88 314 Z " /><path fill="rgb(155,142,79)" stroke="rgb(155,142,79)" stroke-width="1" opacity="0.16862745098039217" d="M 66.5 328 L 67.5 329 L 76.5 329 L 78 330.5 L 78 338.5 Q 78.25 339.25 75.5 339 L 73.5 341 L 70.5 341 Q 70 339.5 67.5 340 L 66.5 341 L 64 338.5 L 64 330.5 L 66.5 328 Z M 68 330 L 68 331 L 68 337 L 70 338 L 74 338 L 74 338 L 74 338 L 74 333 L 75 332 L 74 330 L 69 330 L 68 330 Z " /><path fill="rgb(13,27,56)" stroke="rgb(13,27,56)" stroke-width="1" opacity="0.6941176470588235" d="M 165.5 30 Q 167.75 29.25 167 31.5 L 170 34.5 L 170 36 Q 169.5 36 167.5 36 L 166.5 35 L 162.5 35 L 158.5 39 L 157.5 39 L 153 43.5 L 153 97.5 Q 152.75 98.25 155.5 98 L 158.5 95 L 159.5 95 L 161.5 93 L 162.5 93 L 164.5 91 L 165.5 91 L 169.5 87 Q 170.5 87.5 170 89.5 L 163.5 96 L 162.5 96 L 157.5 100 L 156.5 100 L 153.5 102 Q 150.75 102 150 102 L 150 101.5 L 150 44.5 Q 151.5 44 151 41.5 L 153.5 39 L 154.5 39 L 159.5 34 L 160.5 34 L 163.5 31 Q 165.25 31.25 165.5 30 Z " /><path fill="rgb(13,27,56)" stroke="rgb(13,27,56)" stroke-width="1" opacity="0.6941176470588235" d="M 204.5 71 L 205.5 71 L 207.5 73 L 209 73 L 209 75 L 208.5 75 L 203.5 75 Q 203.25 76.25 201.5 76 L 200 77.5 L 200 81.5 L 199 82.5 L 199 119.5 Q 200.5 120 200 122.5 L 199 123.5 L 199 136.5 L 200 137.5 L 200 139 Q 200.5 139 202.5 139 Q 202.75 137.75 204.5 138 L 206 136.5 Q 205.75 134.75 207 134.5 L 207 130.5 L 208.5 129 L 209 129.5 L 209 137.5 L 206.5 140 L 205.5 140 Q 205.25 141.25 203.5 141 L 201.5 143 L 197.5 143 L 197 143 L 197 142.5 L 197 111.5 L 196 110.5 L 196 101.5 L 197 100.5 L 197 77.5 Q 198.25 77.25 198 75.5 L 199.5 74 L 200.5 74 L 202.5 72 Q 204.25 72.25 204.5 71 Z " /><path fill="rgb(13,27,56)" stroke="rgb(13,27,56)" stroke-width="1" opacity="0.6941176470588235" d="M 121.5 79 L 124.5 79 L 125.5 80 L 127 80 L 127 80.5 L 127 92.5 L 128 93.5 L 128 110.5 Q 126.5 111 127 113.5 L 128 114.5 L 126 116.5 Q 126.75 118.75 124.5 118 L 122.5 120 Q 120 119.5 119.5 121 Q 119.25 119.75 117.5 120 L 115 122.5 L 115 130.5 L 115 131 Q 114.5 131 112.5 131 L 111.5 130 L 107.5 130 L 101.5 124 L 99.5 124 Q 99.25 125.25 97.5 125 L 95.5 127 L 94.5 127 Q 94.25 128.25 92.5 128 L 91.5 129 L 89.5 129 L 87.5 131 L 86.5 131 Q 86.25 132.25 84.5 132 L 82.5 134 L 81.5 134 L 79.5 136 L 78.5 136 L 77 137.5 Q 77.25 139.25 76 139.5 L 76 152.5 L 75 153.5 L 75 161.5 L 76 162.5 L 76 170.5 L 75 171.5 L 75 177.5 L 74 178.5 L 74 185.5 L 75 186.5 L 75 215.5 L 76 216.5 L 76 235.5 Q 77.25 235.75 77 237.5 L 76 238.5 L 76 246.5 L 77 247.5 L 77 254.5 Q 78.25 254.75 78 256.5 L 81 259.5 L 81 260.5 L 85 264.5 L 85 265.5 L 89 269.5 L 89 271 L 90.5 271 L 92 272.5 L 92 273.5 L 105.5 287 L 106.5 287 L 112.5 293 L 113.5 293 L 117.5 297 L 118.5 297 L 122.5 301 L 123.5 301 L 125.5 303 L 126.5 303 L 129.5 306 L 130.5 306 Q 130.75 307.25 132.5 307 L 136 310.5 L 136 314.5 L 134.5 316 L 129.5 316 L 128.5 317 Q 128 315.5 125.5 316 L 124 314.5 L 124 313.5 L 119.5 309 L 118.5 309 L 117 307.5 Q 117.5 306.5 119.5 307 L 120.5 308 L 121.5 308 L 122.5 309 L 123.5 309 L 126.5 311 L 130.5 311 L 131 310.5 L 127.5 307 L 126.5 307 L 123.5 304 L 122.5 304 L 119.5 301 L 118.5 301 L 114.5 297 L 113.5 297 L 109.5 293 L 108.5 293 L 102.5 287 L 101.5 287 L 95 280.5 L 95 279.5 L 86 270.5 L 86 269.5 L 79 262.5 L 79 261.5 L 75 256.5 Q 75.75 253.25 74 252.5 L 74 237.5 L 73 236.5 L 73 214.5 L 72 213.5 L 72 191.5 L 71 190.5 L 71 184.5 L 71 184 Q 70.5 184 68.5 184 L 67 182.5 L 67 144.5 L 67 144 L 69 144 L 69 145.5 L 71 147.5 Q 70.75 148.75 71.5 149 L 73 147.5 L 73 141.5 Q 74.75 140.75 74 137.5 Q 75.25 137.25 75 135.5 L 76.5 134 L 77.5 134 Q 77.75 132.75 79.5 133 L 82.5 130 L 83.5 130 L 84.5 129 L 85.5 129 L 86.5 128 L 87.5 128 L 88.5 127 L 89.5 127 Q 89.75 125.75 91.5 126 L 93.5 124 L 94.5 124 L 96.5 122 Q 97.75 122.25 98 121.5 Q 97.5 120.5 95.5 121 L 94.5 122 L 93.5 122 L 92.5 123 L 91.5 123 L 90.5 124 L 89.5 124 L 88.5 125 L 87.5 125 L 84.5 127 L 82.5 127 L 79.5 129 L 78.5 129 L 77 127.5 L 77 126 L 78.5 126 L 79.5 125 L 81.5 125 L 82.5 124 L 83.5 124 L 84.5 123 L 85.5 123 Q 85.75 121.75 87.5 122 L 89.5 120 L 91.5 120 L 92.5 119 L 93.5 119 L 96.5 117 L 98.5 117 Q 98.75 115.75 100.5 116 L 102.5 114 L 103.5 114 Q 103.75 112.75 105.5 113 L 108.5 110 L 112.5 110 L 113 110 Q 113 109.5 113 107.5 L 114 106.5 L 114 94.5 L 115 93.5 L 115 84.5 L 116.5 83 L 117.5 83 L 121.5 79 Z M 118 100 L 117 101 L 117 107 L 117 107 Q 117 107 120 107 L 121 106 L 125 106 L 125 106 L 125 106 L 125 102 L 125 101 L 125 101 L 119 101 L 118 100 Z M 111 116 Q 109 117 109 120 L 108 121 L 106 121 L 106 123 Q 107 123 107 125 L 110 127 L 112 127 L 113 126 L 113 118 L 112 116 L 111 116 Z " /><path fill="rgb(13,27,56)" stroke="rgb(13,27,56)" stroke-width="1" opacity="0.6941176470588235" d="M 158.5 110 Q 159.75 109.75 160 110.5 L 153 117.5 Q 153.5 120 152 120.5 L 152 147.5 L 154.5 150 L 155.5 150 L 157 151.5 L 157 152.5 L 158.5 154 Q 160.75 153.25 160 155.5 L 165.5 161 L 166.5 160 Q 168.25 160.25 168.5 159 L 170 160.5 L 170 161.5 Q 168.5 162 169 164.5 Q 170.5 165 170 167.5 L 169.5 168 L 168.5 167 Q 166.25 167.75 167 165.5 L 165.5 164 L 164.5 164 L 161 160.5 L 161 159.5 L 153.5 152 L 152.5 152 L 150 149.5 Q 150.25 147.75 149 147.5 L 149 132.5 L 150 131.5 L 150 122.5 Q 148.75 122.25 149 120.5 L 150 119.5 L 150 115.5 L 152.5 113 L 154.5 113 L 156.5 111 Q 158.25 111.25 158.5 110 Z " /><path fill="rgb(13,27,56)" stroke="rgb(13,27,56)" stroke-width="1" opacity="0.6941176470588235" d="M 234.5 116 L 236.5 116 L 239.5 118 L 241.5 118 L 242.5 119 L 244.5 119 L 245.5 120 L 247.5 120 L 248.5 121 L 250.5 121 L 251.5 122 L 252.5 122 Q 252.75 123.25 254.5 123 L 257.5 126 L 258.5 126 L 263.5 130 L 264.5 130 L 269 134.5 Q 268.75 136.25 270 136.5 L 270 142.5 L 271 143.5 L 271 152.5 Q 272.25 152.75 272 154.5 L 271 155.5 Q 271.25 156.75 270.5 157 Q 269.75 156.75 270 155.5 L 269 154.5 L 269 145.5 L 268 144.5 L 268 136.5 L 263.5 132 L 262.5 132 L 260.5 130 L 259.5 130 Q 259.25 128.75 257.5 129 L 252.5 124 L 250.5 124 L 249.5 123 Q 247 123.5 246.5 122 Q 245.75 122.25 246 123.5 L 248.5 126 L 249.5 126 Q 249.75 127.25 251.5 127 L 253.5 129 L 254.5 129 Q 254.75 130.25 256.5 130 L 258.5 132 L 259.5 132 L 262.5 135 L 263.5 135 L 265 136.5 Q 264.75 138.25 266 138.5 L 266 253.5 L 265 254.5 L 265 256.5 L 263 258.5 L 263 259.5 L 257 265.5 L 257 266.5 L 249 274.5 L 249 275.5 L 235.5 289 Q 233.25 288.25 234 290.5 L 232.5 292 L 231.5 292 L 226.5 297 L 225.5 297 L 221.5 301 L 220.5 301 L 218.5 303 L 217.5 303 L 214.5 306 L 213.5 306 L 210.5 309 L 209.5 309 L 207.5 311 L 206.5 311 L 201.5 315 L 200.5 315 L 199.5 316 L 198.5 316 Q 198.25 317.25 196.5 317 L 194.5 319 L 193.5 319 Q 193.25 320.25 191.5 320 L 189.5 322 L 188.5 322 Q 188.25 323.25 186.5 323 L 184.5 325 L 182.5 325 L 180.5 327 L 179.5 327 Q 179.25 328.25 177.5 328 L 176 329.5 Q 175.25 331.75 177.5 331 L 178.5 332 Q 180.5 331.5 181 332.5 L 179.5 334 L 176.5 334 Q 176 335.5 173.5 335 Q 173.25 333.75 171.5 334 L 168.5 331 Q 165.75 331 165 331 Q 165 330.5 165 328.5 L 165.5 328 L 166 328.5 L 166 330 Q 166.5 330 168.5 330 Q 168.75 328.75 170.5 329 L 172.5 327 Q 174.25 327.25 174.5 326 L 176.5 326 L 177.5 325 L 178.5 325 L 179.5 324 L 180.5 324 Q 180.75 322.75 182.5 323 L 184.5 321 L 186.5 321 L 191.5 317 L 193.5 317 L 195.5 315 L 196.5 315 Q 196.75 313.75 198.5 314 L 200.5 312 L 201.5 312 L 203.5 310 L 204.5 310 L 206.5 308 L 207.5 308 L 210.5 305 L 211.5 305 L 213.5 303 L 214.5 303 L 217.5 300 L 218.5 300 L 221.5 297 L 222.5 297 L 225.5 294 L 226.5 294 L 236.5 284 L 237.5 284 L 239 282.5 L 239 281.5 L 241.5 279 Q 243.75 279.75 243 277.5 L 255 265.5 L 255 264.5 L 257 262.5 L 257 261.5 L 262 256.5 Q 261.75 254.75 263 254.5 L 263 221.5 Q 264.75 220.75 264 217.5 Q 262.25 216.75 263 213.5 Q 264.5 213 264 210.5 L 263 209.5 L 263 195.5 L 264 194.5 Q 262 193.5 264 192.5 L 264 181.5 L 263 180.5 Q 265 179.5 263 178.5 Q 262.5 176 264 175.5 L 263 174.5 L 263 162.5 Q 265 161.5 263 160.5 L 263 138.5 L 259.5 135 L 258.5 135 L 256.5 133 Q 254.75 133.25 254.5 132 L 253.5 132 L 251.5 130 L 250.5 130 Q 250.25 128.75 248.5 129 L 246.5 127 L 245.5 127 L 243.5 125 L 242.5 125 Q 242.25 123.75 240.5 124 L 238.5 122 L 237.5 122 Q 237.25 120.75 235.5 121 L 233 118.5 L 233 117.5 L 234.5 116 Z " /><path fill="rgb(13,27,56)" stroke="rgb(13,27,56)" stroke-width="1" opacity="0.6941176470588235" d="M 233.5 162 L 237.5 162 Q 237.75 163.25 239.5 163 L 242 165.5 Q 241.5 166.5 239.5 166 L 236.5 164 L 234.5 164 L 233.5 165 L 228.5 165 L 225.5 167 L 221.5 167 Q 220.5 166.5 221.5 166 L 223.5 166 L 226.5 164 Q 229 164.5 229.5 163 L 232.5 163 L 233.5 162 Z " /><path fill="rgb(102,64,110)" stroke="rgb(102,64,110)" stroke-width="1" opacity="0.9529411764705882" d="M 170.5 34 L 171 34.5 L 171 86.5 L 172 87.5 L 171.5 88 L 170 88 L 170 87.5 L 170 38.5 Q 168.75 38.25 169 36.5 L 170 35.5 Q 169.75 34.25 170.5 34 Z " /><path fill="rgb(102,64,110)" stroke="rgb(102,64,110)" stroke-width="1" opacity="0.9529411764705882" d="M 209.5 73 L 210 73.5 L 210 77.5 L 211 78.5 L 211 102.5 L 210 103.5 L 210 107.5 L 211 108.5 L 211 126.5 L 210 127.5 L 210 131.5 L 212 134.5 L 211.5 135 Q 209.5 135 209 135 L 209 134.5 L 209 76.5 L 208 75.5 L 209 74.5 Q 208.75 73.25 209.5 73 Z " /><path fill="rgb(102,64,110)" stroke="rgb(102,64,110)" stroke-width="1" opacity="0.9529411764705882" d="M 123.5 74 Q 124.25 74.25 124 75.5 L 119.5 80 Q 117.5 80 117 80 L 117 78 L 118.5 78 L 123.5 74 Z " /><path fill="rgb(102,64,110)" stroke="rgb(102,64,110)" stroke-width="1" opacity="0.9529411764705882" d="M 218.5 91 Q 221.5 90.5 222 92.5 L 222 96.5 L 220.5 98 Q 218.75 98.25 218.5 97 L 217 97 L 217 96.5 L 217 92.5 L 218.5 91 Z " /><path fill="rgb(102,64,110)" stroke="rgb(102,64,110)" stroke-width="1" opacity="0.9529411764705882" d="M 165.5 104 L 166 104.5 L 166 106 L 164.5 106 L 161.5 109 L 160.5 109 L 159.5 110 L 158.5 110 L 155.5 112 Q 152.75 112 152 112 L 152 110.5 L 152.5 110 Q 153.5 112 154.5 110 L 156.5 110 L 161.5 105 Q 162.5 107 163.5 105 Q 165.25 105.25 165.5 104 Z " /><path fill="rgb(102,64,110)" stroke="rgb(102,64,110)" stroke-width="1" opacity="0.9529411764705882" d="M 169 106 L 171 106 L 171 106.5 L 171 162.5 Q 170.5 163.5 170 162.5 L 170 160.5 Q 168.5 160 169 157.5 L 170 156.5 L 170 109.5 L 169 108.5 Q 169 106.5 169 106 Z " /><path fill="rgb(102,64,110)" stroke="rgb(102,64,110)" stroke-width="1" opacity="0.9529411764705882" d="M 83.5 121 L 84 121.5 L 81.5 124 L 79.5 124 L 77 126.5 L 77 128 Q 76.5 128 74.5 128 L 73.5 129 L 72.5 129 Q 72.25 130.25 70.5 130 L 68 132.5 Q 68.5 135 67 135.5 L 67 256.5 L 68 257.5 L 68 258.5 Q 69.25 258.75 69 260.5 L 71 262.5 L 71 263.5 L 76 268.5 L 76 269.5 L 82 275.5 L 82 276.5 L 98.5 293 L 99.5 293 L 104.5 298 L 105.5 298 L 108.5 301 L 109.5 301 L 114.5 306 L 115.5 306 L 118.5 309 L 119.5 309 L 124 313.5 L 124 315 L 122 315 L 122 312 L 120.5 312 Q 120.25 310.75 118.5 311 L 115.5 308 L 114.5 308 L 110.5 304 L 109.5 304 L 105.5 300 L 104.5 300 L 101.5 297 L 100.5 297 L 94.5 291 L 93.5 291 L 82 279.5 L 82 278.5 L 74 270.5 L 74 269.5 L 69 264.5 L 69 263.5 L 65 258.5 L 65 253.5 L 64 252.5 L 64 188.5 L 61.5 186 L 60.5 186 L 59 184.5 L 60 183.5 Q 59.75 182.25 60.5 182 L 61.5 184 L 66 179.5 L 65 178.5 Q 64.75 176.75 66 176.5 L 66 168.5 Q 64.5 168 65 165.5 L 66 164.5 L 66 147.5 L 65 146.5 L 65 132.5 Q 66.25 132.25 66 130.5 L 68.5 128 Q 70.25 128.25 70.5 127 L 72.5 127 L 73.5 126 L 74.5 126 L 75.5 125 L 76.5 125 L 79.5 123 L 81.5 123 L 83.5 121 Z " /><path fill="rgb(102,64,110)" stroke="rgb(102,64,110)" stroke-width="1" opacity="0.9529411764705882" d="M 271.5 148 L 272 148.5 L 272 151.5 L 273 152.5 L 273 234.5 L 274 235.5 L 274 240.5 L 273 241.5 L 273 245.5 Q 274.25 245.75 274 247.5 L 273 248.5 L 273 258.5 L 271 260.5 L 271 261.5 L 268 264.5 L 268 265.5 L 264 269.5 L 264 270.5 L 257 277.5 L 257 278.5 L 239.5 296 L 238.5 296 L 234.5 300 L 233.5 300 L 229.5 304 L 228.5 304 L 224.5 308 L 223.5 308 L 220.5 311 L 219.5 311 L 216.5 314 L 215.5 314 L 211.5 318 L 210.5 318 Q 210.25 319.25 208.5 319 L 205.5 322 L 204.5 322 L 203.5 323 L 202.5 323 Q 202.25 324.25 200.5 324 L 198.5 326 L 197.5 326 L 196.5 327 L 195.5 327 Q 195.25 328.25 193.5 328 L 191.5 330 L 189.5 330 L 187.5 332 L 186.5 332 L 183.5 334 Q 181 333.5 180.5 335 L 177.5 335 Q 176.5 334.5 177.5 334 L 179.5 334 L 180.5 333 L 181.5 333 L 182.5 332 L 183.5 332 L 184.5 331 L 185.5 331 L 186.5 330 L 187.5 330 L 188.5 329 L 189.5 329 L 190.5 328 L 191.5 328 L 192.5 327 L 193.5 327 L 194.5 326 L 195.5 326 Q 195.75 324.75 197.5 325 L 199.5 323 L 200.5 323 Q 200.75 321.75 202.5 322 L 204.5 320 L 205.5 320 L 207.5 318 L 208.5 318 L 210.5 316 L 211.5 316 L 214.5 313 L 215.5 313 L 219.5 309 L 220.5 309 L 223.5 306 Q 225.25 306.25 225.5 305 L 227 305 Q 226.5 302.88 228.5 302 L 229.5 302 L 232.5 299 L 233.5 299 L 237.5 295 L 238.5 295 L 255 278.5 L 255 277.5 L 263 269.5 L 263 268.5 L 267 264.5 L 267 263.5 L 270 260.5 L 270 259.5 L 272 257.5 L 272 158.5 Q 270.5 158 271 155.5 Q 272.25 155.25 272 153.5 L 271 152.5 L 271 148.5 L 271.5 148 Z " /><path fill="rgb(102,64,110)" stroke="rgb(102,64,110)" stroke-width="1" opacity="0.9529411764705882" d="M 98.5 157 L 103.5 157 L 104.5 158 L 106.5 158 Q 107 159.5 109.5 159 L 112.5 161 L 115.5 161 L 116.5 162 L 117.5 162 L 118.5 163 L 119.5 163 L 122.5 165 L 124.5 165 Q 125 166.5 127.5 166 L 128.5 167 Q 130.25 166.75 130.5 168 L 132.5 168 L 135.5 170 L 137.5 170 L 138.5 171 L 140.5 171 L 141.5 172 L 143.5 172 L 144.5 173 L 146.5 173 L 147.5 174 L 149.5 174 Q 150 175.5 152.5 175 L 155.5 177 L 157.5 177 L 159.5 179 L 160.5 179 L 166 184.5 Q 165.75 186.25 167 186.5 L 167 190.5 L 168 191.5 L 168 262.5 L 169 263.5 L 169 266.5 L 169.5 267 L 172 264.5 L 172 194.5 L 173 193.5 L 173 188.5 Q 174.5 188 174 185.5 Q 175.25 185.25 175 183.5 L 179.5 179 L 180.5 179 L 183.5 177 L 185.5 177 L 188.5 175 L 190.5 175 L 191.5 174 L 193.5 174 Q 194 172.5 196.5 173 L 199.5 171 L 201.5 171 L 202.5 170 L 204.5 170 L 205.5 169 L 207.5 169 L 208.5 168 Q 211 168.5 211.5 167 L 214.5 167 Q 215.25 165.25 218.5 166 L 219.5 165 Q 222 165.5 222.5 164 L 223 164.5 L 223 166 L 221.5 166 L 220.5 167 L 218.5 167 L 217.5 168 L 214.5 168 L 213.5 169 L 211.5 169 L 210.5 170 L 208.5 170 L 207.5 171 Q 205 170.5 204.5 172 L 201.5 172 L 200.5 173 L 199.5 173 L 196.5 175 L 194.5 175 L 193.5 176 L 191.5 176 Q 191 177.5 188.5 177 L 187.5 178 L 186.5 178 L 183.5 180 L 181.5 180 L 179.5 182 L 178 182 L 178 183.5 L 176 185.5 Q 176.25 187.25 175 187.5 L 175 189.5 L 174 190.5 L 174 265.5 L 173 266.5 L 173 268.5 Q 171.5 269 172 271.5 L 172.5 272 L 173.5 271 L 175.5 271 L 178 268.5 L 178 267.5 L 180 265.5 L 180 264.5 L 183.5 261 Q 185.25 261.25 185.5 260 L 187.5 260 L 188.5 259 L 190.5 259 L 191.5 258 L 193.5 258 L 196.5 256 L 198.5 256 L 199.5 255 L 202.5 255 Q 203 253.5 205.5 254 L 206.5 253 L 207.5 253 L 210.5 251 L 213.5 251 L 214.5 250 L 216.5 250 L 219.5 248 L 221.5 248 L 222.5 247 L 225.5 247 Q 226 245.5 228.5 246 L 230.5 244 Q 233 244.5 233.5 243 L 237.5 243 L 239.5 241 L 241 241 L 241 239.5 L 242 238.5 L 242 165.5 L 242.5 165 Q 243.5 165.5 243 167.5 L 244 168.5 L 244 193.5 L 243 194.5 L 243 240.5 L 241.5 242 L 240.5 242 L 237.5 244 L 235.5 244 L 234.5 245 L 232.5 245 Q 232 246.5 229.5 246 L 226.5 248 L 224.5 248 L 223.5 249 L 221.5 249 Q 221 250.5 218.5 250 L 215.5 252 L 212.5 252 Q 212 253.5 209.5 253 L 208.5 254 L 207.5 254 L 204.5 256 L 201.5 256 L 200.5 257 L 198.5 257 Q 198 258.5 195.5 258 L 192.5 260 Q 190 259.5 189.5 261 L 186.5 261 Q 186.25 262.25 184.5 262 L 181 265.5 L 181 266.5 Q 179.75 266.75 180 268.5 L 176.5 272 Q 174.75 271.75 174.5 273 L 169.5 273 L 167.5 271 L 166 271 L 166 270.5 L 166 189.5 L 165 188.5 L 165 186.5 Q 163.75 186.25 164 184.5 L 160.5 181 L 159.5 181 L 157.5 179 L 155.5 179 Q 155.25 177.75 153.5 178 L 151.5 176 Q 149 176.5 148.5 175 L 145.5 175 L 144.5 174 L 142.5 174 L 139.5 172 L 136.5 172 Q 136 170.5 133.5 171 L 130.5 169 L 128.5 169 L 127.5 168 L 125.5 168 L 124.5 167 Q 122 167.5 121.5 166 L 119.5 166 L 116.5 164 Q 114 164.5 113.5 163 L 110.5 163 L 109.5 162 Q 107.75 162.25 107.5 161 L 105.5 161 L 104.5 160 L 98.5 160 L 98 160 L 98 160.5 L 98 165.5 L 97 166.5 L 97 179.5 L 98 180.5 L 98 186.5 L 97 187.5 L 97 238.5 L 100.5 242 Q 102.25 241.75 102.5 243 Q 105 242.5 105.5 244 L 108.5 244 L 109.5 245 L 110.5 245 L 113.5 247 Q 116 246.5 116.5 248 L 119.5 248 L 122.5 250 L 124.5 250 L 125.5 251 Q 128 250.5 128.5 252 L 131.5 252 L 134.5 254 L 136.5 254 L 137.5 255 Q 140 254.5 140.5 256 L 143.5 256 L 144.5 257 L 145.5 257 L 148.5 259 L 151.5 259 Q 152 260.5 154.5 260 L 156.5 262 L 157.5 262 L 159 263.5 L 159 264.5 L 161 266.5 L 161 267.5 L 163.5 270 Q 164.75 269.75 165 270.5 Q 164.5 271.5 162.5 271 L 159 267.5 L 159 266.5 L 154.5 262 L 152.5 262 L 151.5 261 L 149.5 261 L 148.5 260 L 146.5 260 L 145.5 259 L 143.5 259 L 142.5 258 L 140.5 258 L 139.5 257 L 137.5 257 L 136.5 256 L 134.5 256 L 133.5 255 L 131.5 255 Q 131 253.5 128.5 254 L 127.5 253 L 124.5 253 L 121.5 251 L 119.5 251 L 118.5 250 L 116.5 250 L 115.5 249 L 113.5 249 L 112.5 248 L 110.5 248 Q 110 246.5 107.5 247 L 104.5 245 L 101.5 245 L 100.5 244 L 99.5 244 Q 99.25 242.75 97.5 243 L 95 240.5 L 95 193.5 Q 95.25 192.75 92.5 193 L 92 192.5 L 94 190.5 L 94 185.5 L 95 184.5 L 95 160.5 L 96 159.5 L 96 158 L 97.5 158 L 98.5 157 Z " /><path fill="rgb(102,64,110)" stroke="rgb(102,64,110)" stroke-width="1" opacity="0.9529411764705882" d="M 226.5 174 L 231.5 174 L 233 175.5 L 233 181.5 L 232 182.5 L 232 184 L 230.5 184 L 229.5 185 L 228.5 185 L 227.5 186 L 226.5 186 Q 226.25 187.25 224.5 187 L 222 184.5 L 222 177.5 L 224.5 175 Q 226.25 175.25 226.5 174 Z M 226 176 L 224 178 L 224 184 L 226 185 L 227 184 L 229 184 L 230 183 L 231 183 L 231 183 L 231 177 L 231 176 L 231 176 L 226 176 Z " /><path fill="rgb(102,64,110)" stroke="rgb(102,64,110)" stroke-width="1" opacity="0.9529411764705882" d="M 212.5 179 Q 215.5 178.5 216 180.5 L 216 187.5 L 212.5 191 L 207.5 191 L 206 189.5 L 206 182.5 L 207.5 181 Q 209.25 181.25 209.5 180 L 211.5 180 L 212.5 179 Z M 212 181 Q 211 182 210 182 L 207 185 L 207 189 L 207 189 L 209 189 L 210 190 Q 210 189 213 189 L 214 188 L 214 187 Q 216 186 214 185 Q 214 182 214 181 Q 214 181 212 181 Z " /><path fill="rgb(102,64,110)" stroke="rgb(102,64,110)" stroke-width="1" opacity="0.9529411764705882" d="M 212.5 196 Q 215.5 195.5 216 197.5 L 216 204.5 L 213.5 207 Q 211 206.5 210.5 208 L 206.5 208 L 206 208 L 206 207.5 L 206 199.5 L 208.5 197 Q 211.75 197.75 212.5 196 Z M 211 198 L 210 199 L 208 199 L 208 201 L 207 202 L 207 205 L 208 206 Q 208 207 209 207 Q 209 205 213 206 L 214 205 L 214 199 L 214 198 Q 213 198 211 198 Z " /><path fill="rgb(102,64,110)" stroke="rgb(102,64,110)" stroke-width="1" opacity="0.9529411764705882" d="M 196.5 201 L 197.5 201 L 200 203.5 L 200 209.5 L 199 210.5 L 199 212 L 197.5 212 L 194.5 214 L 191.5 214 L 190 212.5 Q 190.25 210.75 189 210.5 L 189 206.5 Q 190.25 206.25 190 204.5 L 191.5 203 Q 193.25 203.25 193.5 202 L 195.5 202 L 196.5 201 Z M 196 203 L 193 205 L 191 205 L 191 206 L 191 211 L 193 212 L 195 212 Q 195 211 197 211 L 198 210 L 198 204 L 198 203 Q 197 203 196 203 Z " /><path fill="rgb(102,64,110)" stroke="rgb(102,64,110)" stroke-width="1" opacity="0.9529411764705882" d="M 210.5 213 L 214.5 213 L 216 214.5 L 216 221.5 L 213.5 224 Q 211.75 223.75 211.5 225 L 206.5 225 L 206 225 L 206 224.5 L 206 220.5 L 205 219.5 Q 206.5 219 206 216.5 L 208.5 214 Q 210.25 214.25 210.5 213 Z M 213 214 L 210 216 L 209 216 L 207 218 L 207 223 L 209 224 Q 210 224 211 223 L 213 223 L 214 222 Q 214 220 215 220 L 215 217 L 213 214 Z " /><path fill="rgb(102,64,110)" stroke="rgb(102,64,110)" stroke-width="1" opacity="0.9529411764705882" d="M 193.5 219 L 198.5 219 L 200 220.5 L 200 226.5 L 196.5 230 L 190.5 230 Q 189.5 230.37 190 228.5 L 189 227.5 L 189 223.5 Q 190.25 223.25 190 221.5 L 191.5 220 Q 193.25 220.25 193.5 219 Z M 197 220 Q 196 222 194 221 L 191 224 Q 190 227 193 228 L 197 228 L 198 227 L 198 222 L 197 220 Z " /><path fill="rgb(102,64,110)" stroke="rgb(102,64,110)" stroke-width="1" opacity="0.9529411764705882" d="M 227.5 224 L 231.5 224 L 233 225.5 L 233 232.5 L 230.5 235 Q 228 234.5 227.5 236 L 223.5 236 L 223 236 L 223 235.5 L 223 231.5 L 222 230.5 Q 223.5 230 223 227.5 L 225.5 225 Q 227.25 225.25 227.5 224 Z M 231 225 Q 230 227 227 226 L 224 229 L 224 234 L 226 235 L 227 234 L 229 234 L 230 233 L 231 233 L 231 232 L 232 231 L 232 227 L 231 225 Z " /><path fill="rgb(102,64,110)" stroke="rgb(102,64,110)" stroke-width="1" opacity="0.9529411764705882" d="M 213.5 229 L 214.5 229 L 216 230.5 L 216 238.5 L 213.5 241 Q 211 240.5 210.5 242 L 207.5 242 L 206 240.5 L 206 233.5 L 208.5 231 L 210.5 231 L 213.5 229 Z M 210 232 L 207 235 L 207 239 L 209 240 L 213 240 L 215 238 Q 216 234 214 234 L 214 232 L 214 232 L 210 232 Z " /><path fill="rgb(102,64,110)" stroke="rgb(102,64,110)" stroke-width="1" opacity="0.9529411764705882" d="M 196.5 235 L 197.5 235 L 200 237.5 L 200 243.5 L 197.5 246 L 196.5 246 L 195.5 247 L 193.5 247 Q 193.25 248.25 191.5 248 L 190 246.5 Q 190.25 244.75 189 244.5 L 189 239.5 L 192.5 236 Q 195.75 236.75 196.5 235 Z M 195 237 Q 194 238 193 238 L 191 240 L 191 245 L 193 246 Q 194 246 195 245 L 196 245 L 197 244 L 198 244 L 198 244 L 198 238 L 198 237 Q 197 237 195 237 Z " /><path fill="rgb(15,32,70)" stroke="rgb(15,32,70)" stroke-width="1" opacity="0.9725490196078431" d="M 162.5 35 L 166.5 35 L 167.5 36 L 169 36 L 169 37.5 L 170 38.5 L 170 86.5 L 165.5 91 L 164.5 91 L 162.5 93 L 161.5 93 L 159.5 95 L 158.5 95 L 155.5 98 Q 153.5 98 153 98 L 153 97.5 L 153 43.5 L 157.5 39 L 158.5 39 L 162.5 35 Z " /><path fill="rgb(15,32,70)" stroke="rgb(15,32,70)" stroke-width="1" opacity="0.9725490196078431" d="M 203.5 75 L 207.5 75 L 209 76.5 L 209 128.5 L 207 130.5 L 207 134.5 Q 205.75 134.75 206 136.5 L 204.5 138 Q 202.75 137.75 202.5 139 Q 200.5 139 200 139 L 200 137.5 L 199 136.5 L 199 123.5 Q 200.5 123 200 120.5 L 199 119.5 L 199 82.5 L 200 81.5 L 200 77.5 L 201.5 76 Q 203.25 76.25 203.5 75 Z " /><path fill="rgb(15,32,70)" stroke="rgb(15,32,70)" stroke-width="1" opacity="0.9725490196078431" d="M 117.5 100 L 118.5 101 L 124.5 101 L 125 101 L 125 101.5 L 125 105.5 L 125 106 L 124.5 106 L 120.5 106 L 119.5 107 Q 117.5 107 117 107 L 117 106.5 L 117 100.5 L 117.5 100 Z " /><path fill="rgb(15,32,70)" stroke="rgb(15,32,70)" stroke-width="1" opacity="0.9725490196078431" d="M 163.5 107 Q 163.75 108.25 165.5 108 L 166.5 107 Q 168.5 107 169 107 L 169 108.5 L 170 109.5 L 170 156.5 Q 168.75 156.75 169 158.5 L 167.5 160 Q 165.75 159.75 165.5 161 L 160 155.5 L 160 154 Q 157.88 154.5 157 152.5 L 157 151.5 L 155.5 150 L 154.5 150 L 152 147.5 L 152 120.5 Q 153.5 120 153 117.5 L 160 110.5 L 160 109 L 161.5 109 L 163.5 107 Z " /><path fill="rgb(15,32,70)" stroke="rgb(15,32,70)" stroke-width="1" opacity="0.9725490196078431" d="M 110.5 116 L 111.5 116 L 113 117.5 L 113 125.5 L 111.5 127 L 109.5 127 L 107 124.5 Q 107.25 122.75 106 122.5 L 106 121 L 107.5 121 L 109 119.5 Q 108.5 116.5 110.5 116 Z " /><path fill="rgb(15,32,70)" stroke="rgb(15,32,70)" stroke-width="1" opacity="0.9725490196078431" d="M 95.5 121 Q 97.5 120.5 98 121.5 Q 97.75 122.25 96.5 122 L 94.5 124 L 93.5 124 L 91.5 126 L 90.5 126 L 89.5 127 L 88.5 127 Q 88.25 128.25 86.5 128 L 83.5 130 L 82.5 130 L 79.5 133 L 78.5 133 Q 78.25 134.25 76.5 134 L 75 135.5 Q 75.25 137.25 74 137.5 L 74 140.5 L 73 141.5 L 73 147.5 L 71.5 149 Q 70.75 148.75 71 147.5 L 69 145.5 L 69 144 L 67 144 L 67 143.5 L 67 135.5 Q 68.5 135 68 132.5 L 70.5 130 L 71.5 130 L 74.5 128 L 77.5 128 Q 77.75 129.25 79.5 129 L 80.5 128 Q 82.25 128.25 82.5 127 L 84.5 127 L 85.5 126 L 86.5 126 L 87.5 125 L 88.5 125 L 89.5 124 L 90.5 124 L 91.5 123 L 92.5 123 L 95.5 121 Z " /><path fill="rgb(15,32,70)" stroke="rgb(15,32,70)" stroke-width="1" opacity="0.9725490196078431" d="M 246.5 122 L 247.5 123 L 249.5 123 Q 250 124.5 252.5 124 L 257.5 129 L 258.5 129 Q 258.75 130.25 260.5 130 L 262.5 132 L 263.5 132 L 268 136.5 L 268 144.5 L 269 145.5 L 269 154.5 Q 270.25 154.75 270 156.5 L 272 158.5 L 272 257.5 L 270 259.5 L 270 260.5 L 267 263.5 L 267 264.5 L 263 268.5 L 263 269.5 L 255 277.5 L 255 278.5 L 238.5 295 L 237.5 295 L 233.5 299 L 232.5 299 Q 232.25 300.25 230.5 300 L 224.5 306 L 223.5 306 L 221.5 308 L 220.5 308 L 216.5 312 L 215.5 312 L 211.5 316 L 210.5 316 L 208.5 318 L 207.5 318 L 202.5 322 L 201.5 322 Q 201.25 323.25 199.5 323 L 197.5 325 L 196.5 325 L 195.5 326 L 194.5 326 L 193.5 327 L 192.5 327 L 191.5 328 L 190.5 328 L 189.5 329 L 188.5 329 L 187.5 330 L 186.5 330 L 185.5 331 L 184.5 331 L 181.5 333 L 180.5 332 L 178.5 332 L 177.5 331 L 176 331 Q 175.5 328.88 177.5 328 L 178.5 328 Q 178.75 326.75 180.5 327 L 182.5 325 L 184.5 325 L 186.5 323 L 187.5 323 Q 187.75 321.75 189.5 322 L 191.5 320 L 192.5 320 Q 192.75 318.75 194.5 319 L 196.5 317 L 197.5 317 L 198.5 316 L 199.5 316 Q 199.75 314.75 201.5 315 L 203.5 313 L 204.5 313 L 206.5 311 L 207.5 311 L 209.5 309 L 210.5 309 L 213.5 306 L 214.5 306 L 217.5 303 L 218.5 303 L 220.5 301 L 221.5 301 L 225.5 297 L 226.5 297 L 231.5 292 L 232.5 292 L 234 290.5 Q 233.25 288.25 235.5 289 L 249 275.5 L 249 274.5 L 257 266.5 L 257 265.5 L 263 259.5 L 263 258.5 L 265 256.5 L 265 254.5 L 266 253.5 L 266 138.5 Q 264.75 138.25 265 136.5 L 263.5 135 L 262.5 135 L 259.5 132 L 258.5 132 L 256.5 130 L 255.5 130 Q 255.25 128.75 253.5 129 L 251.5 127 L 250.5 127 Q 250.25 125.75 248.5 126 L 246 123.5 Q 245.75 122.25 246.5 122 Z " /><path fill="rgb(15,32,70)" stroke="rgb(15,32,70)" stroke-width="1" opacity="0.9725490196078431" d="M 98 160 L 98.5 160 L 104.5 160 L 105.5 161 L 107.5 161 L 110.5 163 L 113.5 163 L 114.5 164 L 116.5 164 L 119.5 166 L 121.5 166 L 122.5 167 L 124.5 167 L 125.5 168 Q 128 167.5 128.5 169 L 130.5 169 L 133.5 171 Q 136 170.5 136.5 172 L 139.5 172 L 142.5 174 L 144.5 174 L 145.5 175 L 148.5 175 Q 149 176.5 151.5 176 L 153.5 178 Q 155.25 177.75 155.5 179 L 157.5 179 L 159.5 181 L 160.5 181 L 164 184.5 Q 163.75 186.25 165 186.5 L 165 188.5 L 166 189.5 L 166 267.5 L 166 268 L 165.5 268 L 161.5 268 L 161 268 L 161 266.5 L 159 264.5 L 159 263.5 L 157.5 262 L 156.5 262 L 154.5 260 Q 152 260.5 151.5 259 L 148.5 259 L 147.5 258 L 146.5 258 L 143.5 256 L 140.5 256 L 139.5 255 L 137.5 255 Q 137 253.5 134.5 254 L 131.5 252 L 128.5 252 L 127.5 251 L 125.5 251 Q 125 249.5 122.5 250 L 119.5 248 L 116.5 248 Q 116 246.5 113.5 247 L 112.5 246 L 111.5 246 L 108.5 244 L 105.5 244 Q 105 242.5 102.5 243 Q 102.25 241.75 100.5 242 L 97 238.5 L 97 187.5 L 98 186.5 L 98 180.5 L 97 179.5 L 97 166.5 L 98 165.5 L 98 160.5 L 98 160 Z " /><path fill="rgb(15,32,70)" stroke="rgb(15,32,70)" stroke-width="1" opacity="0.9725490196078431" d="M 234.5 164 L 236.5 164 L 239.5 166 Q 241.5 166 242 166 L 242 166.5 L 242 238.5 L 241 239.5 L 241 241 L 239.5 241 L 237.5 243 L 233.5 243 Q 233 244.5 230.5 244 L 228.5 246 Q 226 245.5 225.5 247 L 222.5 247 L 221.5 248 L 219.5 248 L 216.5 250 Q 214 249.5 213.5 251 L 210.5 251 L 209.5 252 L 208.5 252 L 205.5 254 Q 203 253.5 202.5 255 L 199.5 255 L 198.5 256 L 196.5 256 L 193.5 258 L 191.5 258 L 190.5 259 L 188.5 259 Q 188 260.5 185.5 260 Q 185.25 261.25 183.5 261 L 180 264.5 L 180 265.5 L 178 267.5 L 178 268.5 L 175.5 271 Q 172.5 271.5 172 269.5 L 173 268.5 Q 172.5 266 174 265.5 L 174 190.5 L 175 189.5 L 175 187.5 Q 176.25 187.25 176 185.5 L 178 183.5 L 178 182 L 179.5 182 L 181.5 180 L 183.5 180 L 184.5 179 L 185.5 179 L 188.5 177 L 190.5 177 L 191.5 176 L 193.5 176 Q 194 174.5 196.5 175 L 197.5 174 L 198.5 174 L 201.5 172 L 204.5 172 L 205.5 171 L 207.5 171 L 208.5 170 L 210.5 170 L 211.5 169 Q 214 169.5 214.5 168 L 217.5 168 L 218.5 167 L 225.5 167 L 228.5 165 L 233.5 165 L 234.5 164 Z M 227 174 Q 226 175 225 175 L 222 178 L 222 185 L 225 187 Q 226 187 227 186 L 228 186 L 229 185 L 230 185 L 231 184 L 232 184 L 232 183 L 233 182 L 233 176 L 232 174 L 227 174 Z M 213 179 L 212 180 L 210 180 Q 209 181 208 181 L 206 183 L 206 190 L 208 191 L 213 191 L 216 188 L 216 181 Q 216 179 213 179 Z M 213 196 Q 212 198 209 197 L 206 200 L 206 208 L 206 208 L 207 208 L 211 208 Q 211 207 214 207 L 216 205 L 216 198 Q 216 195 213 196 Z M 197 201 L 196 202 L 194 202 Q 193 203 192 203 L 190 205 Q 190 206 189 207 L 189 211 Q 190 211 190 213 L 192 214 L 195 214 L 198 212 L 199 212 L 199 211 L 200 210 L 200 204 L 198 201 L 197 201 Z M 211 213 Q 210 214 209 214 L 206 217 Q 207 219 205 220 L 206 221 L 206 225 L 206 225 L 207 225 L 212 225 Q 212 224 214 224 L 216 222 L 216 215 L 215 213 L 211 213 Z M 194 219 Q 193 220 192 220 L 190 222 Q 190 223 189 224 L 189 228 L 190 229 Q 189 230 191 230 L 197 230 L 200 227 L 200 221 L 199 219 L 194 219 Z M 228 224 Q 227 225 226 225 L 223 228 Q 224 230 222 231 L 223 232 L 223 236 L 223 236 L 224 236 L 228 236 Q 228 235 231 235 L 233 233 L 233 226 L 232 224 L 228 224 Z M 214 229 L 211 231 L 209 231 L 206 234 L 206 241 L 208 242 L 211 242 Q 211 241 214 241 L 216 239 L 216 231 L 215 229 L 214 229 Z M 197 235 Q 196 237 193 236 L 189 240 L 189 245 Q 190 245 190 247 L 192 248 Q 193 248 194 247 L 196 247 L 197 246 L 198 246 L 200 244 L 200 238 L 198 235 L 197 235 Z " /><path fill="rgb(15,32,70)" stroke="rgb(15,32,70)" stroke-width="1" opacity="0.9725490196078431" d="M 67.5 183 L 68.5 184 Q 70.5 184 71 184 L 71 184.5 L 71 190.5 L 72 191.5 L 72 213.5 L 73 214.5 L 73 236.5 L 74 237.5 L 74 252.5 Q 75.75 253.25 75 256.5 L 77 258.5 L 77 259.5 L 79 261.5 L 79 262.5 L 86 269.5 L 86 270.5 L 95 279.5 L 95 280.5 L 101.5 287 L 102.5 287 L 108.5 293 L 109.5 293 L 113.5 297 L 114.5 297 L 118.5 301 L 119.5 301 L 122.5 304 L 123.5 304 L 126.5 307 L 127.5 307 L 131 310.5 L 130.5 311 L 126.5 311 L 125.5 310 L 124.5 310 L 123.5 309 L 122.5 309 L 119.5 307 L 116.5 307 L 114.5 305 L 113.5 305 L 109.5 301 L 108.5 301 L 105.5 298 L 104.5 298 L 99.5 293 L 98.5 293 L 82 276.5 L 82 275.5 L 76 269.5 L 76 268.5 L 71 263.5 L 71 262.5 L 69 260.5 L 69 259.5 L 67 256.5 L 67 183.5 L 67.5 183 Z " /><path fill="rgb(197,161,87)" stroke="rgb(197,161,87)" stroke-width="1" opacity="0.8823529411764706" d="M 234 100 Q 234.5 100 236.5 100 L 239.5 103 L 240.5 103 Q 240.75 104.25 242.5 104 L 245.5 107 Q 247.25 106.75 247.5 108 L 249.5 108 L 251.5 110 L 252.5 110 L 254.5 112 L 255.5 112 L 260.5 116 L 262.5 116 L 265.5 119 L 266.5 119 Q 266.75 120.25 268.5 120 L 270.5 122 L 271.5 122 L 272.5 123 L 273.5 123 Q 273.75 124.25 275.5 124 L 278.5 127 L 279.5 127 L 281 128.5 L 281 160.5 L 280 161.5 L 280 243.5 L 281 244.5 L 281 260.5 Q 279.75 260.75 280 262.5 L 277 265.5 L 277 266.5 L 273 270.5 L 273 271.5 L 270 274.5 L 270 275.5 L 265 280.5 L 265 281.5 L 243.5 303 L 242.5 303 L 237.5 308 L 236.5 308 L 233.5 311 L 232.5 311 L 228.5 315 L 227.5 315 L 224.5 318 L 223.5 318 L 221.5 320 L 220.5 320 L 217.5 323 L 216.5 323 Q 216.25 324.25 214.5 324 L 211.5 327 L 210.5 327 L 208.5 329 L 207.5 329 L 206.5 330 L 205.5 330 Q 205.25 331.25 203.5 331 L 201.5 333 L 200.5 333 L 199.5 334 L 198.5 334 L 197.5 335 L 196.5 335 Q 196.25 336.25 194.5 336 L 192.5 338 L 190.5 338 L 189.5 339 L 188.5 339 Q 188.25 340.25 186.5 340 L 184.5 342 L 182.5 342 L 179.5 344 L 177.5 344 L 175.5 346 L 172.5 346 Q 171.75 347.75 168.5 347 Q 167.75 345.25 164.5 346 L 162.5 344 L 160.5 344 L 158.5 342 L 156.5 342 L 155.5 341 L 154.5 341 L 153.5 340 L 152.5 340 L 149.5 338 L 147.5 338 Q 147.25 336.75 145.5 337 L 143 334.5 Q 143.25 332.75 142 332.5 L 142 329.5 L 143.5 328 L 148.5 328 L 149.5 329 L 150.5 329 L 151.5 330 L 152.5 330 Q 152.75 331.25 154.5 331 L 156.5 333 Q 158.25 332.75 158.5 334 L 160.5 334 L 161.5 335 L 162.5 335 L 163.5 336 L 164.5 336 L 167.5 338 L 173.5 338 L 174.5 337 L 175.5 337 L 178.5 335 L 180.5 335 Q 181 333.5 183.5 334 L 184.5 333 L 185.5 333 Q 185.75 331.75 187.5 332 L 189.5 330 L 191.5 330 L 193.5 328 L 194.5 328 L 195.5 327 L 196.5 327 Q 196.75 325.75 198.5 326 L 200.5 324 L 201.5 324 L 202.5 323 L 203.5 323 Q 203.75 321.75 205.5 322 L 208.5 319 L 209.5 319 Q 209.75 317.75 211.5 318 L 215.5 314 L 216.5 314 L 219.5 311 L 220.5 311 L 223.5 308 L 224.5 308 L 228.5 304 L 229.5 304 L 233.5 300 L 234.5 300 L 238.5 296 L 239.5 296 L 257 278.5 L 257 277.5 L 264 270.5 L 264 269.5 L 268 265.5 L 268 264.5 L 271 261.5 L 271 260.5 L 273 258.5 L 273 248.5 Q 274.25 248.25 274 246.5 L 273 245.5 L 273 241.5 L 274 240.5 L 274 235.5 L 273 234.5 L 273 152.5 L 272 151.5 L 272 147.5 L 273 146.5 L 273 139.5 L 272 138.5 L 272 132.5 L 270.5 131 L 269.5 131 L 266.5 128 L 265.5 128 Q 265.25 126.75 263.5 127 L 261.5 125 L 260.5 125 L 259.5 124 L 258.5 124 Q 258.25 122.75 256.5 123 L 254.5 121 L 253.5 121 L 251.5 119 L 250.5 119 Q 250.25 117.75 248.5 118 L 246.5 116 L 245.5 116 Q 245.25 114.75 243.5 115 L 241.5 113 L 240.5 113 L 239.5 112 L 238.5 112 Q 238.25 110.75 236.5 111 L 233 107.5 L 233 103.5 L 234 102.5 Q 234 100.5 234 100 Z " /><path fill="rgb(197,161,87)" stroke="rgb(197,161,87)" stroke-width="1" opacity="0.8823529411764706" d="M 225.5 176 L 230.5 176 L 231 176 L 231 176.5 L 231 182.5 L 231 183 L 229.5 183 L 228.5 184 L 226.5 184 L 225.5 185 L 224 183.5 L 224 177.5 L 225.5 176 Z " /><path fill="rgb(197,161,87)" stroke="rgb(197,161,87)" stroke-width="1" opacity="0.8823529411764706" d="M 211.5 181 Q 213.5 181 214 181 Q 214 181.75 214 184.5 Q 216 185.5 214 186.5 L 214 187.5 L 212.5 189 Q 210 188.5 209.5 190 L 208.5 189 L 207 189 L 207 188.5 L 207 184.5 L 209.5 182 Q 211.25 182.25 211.5 181 Z " /><path fill="rgb(197,161,87)" stroke="rgb(197,161,87)" stroke-width="1" opacity="0.8823529411764706" d="M 60 186 L 61.5 186 L 64 188.5 L 64 252.5 L 65 253.5 L 65 258.5 L 67 260.5 L 67 261.5 L 69 263.5 L 69 264.5 L 74 269.5 L 74 270.5 L 82 278.5 L 82 279.5 L 93.5 291 L 94.5 291 L 100.5 297 L 101.5 297 L 104.5 300 L 105.5 300 L 109.5 304 L 110.5 304 L 114.5 308 L 115.5 308 L 118.5 311 Q 120.25 310.75 120.5 312 L 122 312 L 122 315 L 121.5 315 L 116.5 315 Q 116.25 316.25 114.5 316 Q 114.25 314.75 112.5 315 L 108.5 311 L 107.5 311 L 102.5 306 L 101.5 306 L 97.5 302 L 96 302 L 96 300 L 94.5 300 L 76 281.5 L 76 280.5 L 70 274.5 L 70 273.5 L 66 269.5 L 66 268.5 L 64 266.5 L 64 265.5 L 60 260.5 Q 60.5 258 59 257.5 L 59 189.5 L 60 188.5 Q 60 186.5 60 186 Z " /><path fill="rgb(197,161,87)" stroke="rgb(197,161,87)" stroke-width="1" opacity="0.8823529411764706" d="M 247.5 189 L 249 190.5 L 249 245.5 L 246.5 248 L 243.5 248 L 242.5 249 L 240.5 249 Q 240 250.5 237.5 250 L 234.5 252 L 232.5 252 L 231.5 253 L 229.5 253 Q 229 254.5 226.5 254 L 223.5 256 L 220.5 256 L 219.5 257 L 217.5 257 L 214.5 259 L 212.5 259 L 211.5 260 L 209.5 260 L 208.5 261 L 206.5 261 Q 206 262.5 203.5 262 L 200.5 264 L 197.5 264 Q 197 265.5 194.5 265 L 193.5 266 L 192.5 266 L 191.5 267 L 190.5 267 Q 190.25 268.25 188.5 268 L 186 270.5 L 186 271.5 L 178.5 279 Q 176.75 278.75 176.5 280 L 163.5 280 Q 163.25 278.75 161.5 279 L 156 273.5 L 156 272.5 Q 154.75 272.25 155 270.5 L 151.5 267 Q 149.75 267.25 149.5 266 L 147.5 266 L 144.5 264 L 140.5 264 L 138.5 262 L 136.5 262 L 133.5 260 L 130.5 260 L 129.5 259 L 127.5 259 L 124.5 257 L 122.5 257 L 121.5 256 L 119.5 256 L 118.5 255 L 116.5 255 Q 116 253.5 113.5 254 L 110.5 252 L 107.5 252 L 106.5 251 Q 104.75 251.25 104.5 250 L 102.5 250 L 99.5 248 L 97.5 248 Q 97 246.5 94.5 247 Q 94.25 245.75 92.5 246 L 91 244.5 Q 91.25 242.75 90 242.5 L 90 237.5 Q 91.75 236.75 91 233.5 Q 89.25 232.75 90 229.5 L 91 228.5 L 91 217.5 Q 89.75 217.25 90 215.5 Q 92 214.5 90 213.5 L 90 205.5 Q 91.5 205 91 202.5 L 90 201.5 L 90 196.5 Q 91.25 196.25 91 194.5 Q 89.5 194 90 191.5 L 90.5 191 L 92.5 193 Q 95.25 192.75 95 193.5 L 95 240.5 L 97.5 243 L 98.5 243 L 101.5 245 L 104.5 245 L 107.5 247 L 109.5 247 L 110.5 248 L 112.5 248 L 113.5 249 L 115.5 249 L 116.5 250 L 118.5 250 Q 119 251.5 121.5 251 L 124.5 253 L 127.5 253 L 128.5 254 L 130.5 254 L 131.5 255 L 133.5 255 L 134.5 256 L 136.5 256 L 137.5 257 L 139.5 257 L 140.5 258 L 142.5 258 L 143.5 259 L 145.5 259 L 146.5 260 L 148.5 260 L 149.5 261 Q 152 260.5 152.5 262 L 154.5 262 L 159 266.5 L 159 267.5 L 162.5 271 L 163.5 271 L 165.5 273 Q 167.25 272.75 167.5 274 L 171.5 274 L 172.5 273 L 174.5 273 Q 174.75 271.75 176.5 272 L 180 268.5 L 180 267.5 Q 181.25 267.25 181 265.5 L 184.5 262 Q 186.25 262.25 186.5 261 L 189.5 261 Q 190 259.5 192.5 260 L 195.5 258 L 197.5 258 L 198.5 257 Q 201 257.5 201.5 256 L 204.5 256 L 205.5 255 L 206.5 255 L 209.5 253 Q 212 253.5 212.5 252 L 215.5 252 L 218.5 250 L 220.5 250 L 221.5 249 L 223.5 249 Q 224 247.5 226.5 248 L 229.5 246 L 231.5 246 L 232.5 245 L 234.5 245 Q 235 243.5 237.5 244 L 238.5 243 L 239.5 243 Q 239.75 241.75 241.5 242 L 243 240.5 L 243 194.5 Q 244.5 194 244 191.5 L 245.5 190 Q 247.25 190.25 247.5 189 Z " /><path fill="rgb(197,161,87)" stroke="rgb(197,161,87)" stroke-width="1" opacity="0.8823529411764706" d="M 210.5 198 Q 213.25 198 214 198 L 214 198.5 L 214 204.5 L 212.5 206 Q 209.25 205.25 208.5 207 Q 207.75 206.75 208 205.5 L 207 204.5 L 207 201.5 L 208 200.5 L 208 199 L 209.5 199 L 210.5 198 Z " /><path fill="rgb(197,161,87)" stroke="rgb(197,161,87)" stroke-width="1" opacity="0.8823529411764706" d="M 195.5 203 Q 197.5 203 198 203 L 198 203.5 L 198 209.5 L 196.5 211 Q 194.75 210.75 194.5 212 L 192.5 212 L 191 210.5 L 191 205.5 L 191 205 L 192.5 205 L 195.5 203 Z " /><path fill="rgb(197,161,87)" stroke="rgb(197,161,87)" stroke-width="1" opacity="0.8823529411764706" d="M 212.5 214 L 215 216.5 L 215 219.5 Q 213.75 219.75 214 221.5 L 212.5 223 L 210.5 223 Q 210.25 224.25 208.5 224 L 207 222.5 L 207 217.5 L 208.5 216 L 209.5 216 L 212.5 214 Z " /><path fill="rgb(197,161,87)" stroke="rgb(197,161,87)" stroke-width="1" opacity="0.8823529411764706" d="M 196.5 220 L 198 221.5 L 198 226.5 L 196.5 228 L 192.5 228 Q 190.25 227.25 191 223.5 L 193.5 221 Q 196 221.5 196.5 220 Z " /><path fill="rgb(197,161,87)" stroke="rgb(197,161,87)" stroke-width="1" opacity="0.8823529411764706" d="M 230.5 225 L 232 226.5 L 232 230.5 L 231 231.5 L 231 233 L 229.5 233 L 228.5 234 L 226.5 234 L 225.5 235 L 224 233.5 L 224 228.5 L 226.5 226 Q 229.75 226.75 230.5 225 Z " /><path fill="rgb(197,161,87)" stroke="rgb(197,161,87)" stroke-width="1" opacity="0.8823529411764706" d="M 209.5 232 L 213.5 232 L 214 232 L 214 233.5 Q 215.75 234.25 215 237.5 L 212.5 240 L 208.5 240 L 207 238.5 L 207 234.5 L 209.5 232 Z " /><path fill="rgb(197,161,87)" stroke="rgb(197,161,87)" stroke-width="1" opacity="0.8823529411764706" d="M 194.5 237 Q 197.25 237 198 237 L 198 237.5 L 198 243.5 L 198 244 L 196.5 244 L 195.5 245 L 194.5 245 Q 194.25 246.25 192.5 246 L 191 244.5 L 191 239.5 L 192.5 238 Q 194.25 238.25 194.5 237 Z " /><path fill="rgb(197,161,87)" stroke="rgb(197,161,87)" stroke-width="1" opacity="0.8823529411764706" d="M 183.5 281 L 187.5 281 L 188.5 282 L 190 282 L 190 282.5 L 190 288.5 L 188.5 290 L 182.5 290 L 182 290 L 182 289.5 L 182 282.5 L 183.5 281 Z " /><path fill="rgb(197,161,87)" stroke="rgb(197,161,87)" stroke-width="1" opacity="0.8823529411764706" d="M 162 292 L 162.5 292 L 173.5 292 L 174 292 L 174 292.5 L 174 304.5 L 174 305 L 173.5 305 L 169.5 305 Q 169 306.5 166.5 306 L 165.5 305 Q 164.5 307 163.5 305 L 162.5 305 L 161 303.5 L 161 299.5 L 162 298.5 L 162 292.5 L 162 292 Z " /><path fill="rgb(197,161,87)" stroke="rgb(197,161,87)" stroke-width="1" opacity="0.8823529411764706" d="M 150.5 307 L 153.5 307 L 156 309.5 Q 156.25 311.25 155 311.5 L 155 316.5 Q 156.25 316.75 156 318.5 L 155 319.5 L 155 321 L 153.5 321 L 152.5 322 L 149.5 322 L 148.5 321 L 142.5 321 L 142 321 L 142 320.5 L 142 308.5 L 142 308 L 142.5 308 L 149.5 308 L 150.5 307 Z " /><path fill="rgb(197,161,87)" stroke="rgb(197,161,87)" stroke-width="1" opacity="0.8823529411764706" d="M 87.5 314 L 94.5 314 L 96 315.5 L 96 323.5 L 96 324 L 95.5 324 L 86.5 324 L 86 324 L 86 323.5 L 86 315.5 L 87.5 314 Z " /><path fill="rgb(197,161,87)" stroke="rgb(197,161,87)" stroke-width="1" opacity="0.8823529411764706" d="M 122.5 322 L 134.5 322 L 136 323.5 Q 136.75 326.75 135 327.5 L 135 331.5 Q 136.5 332 136 334.5 L 134.5 336 L 129.5 336 L 128.5 337 L 123.5 337 L 121 334.5 L 121 323.5 L 122.5 322 Z " /><path fill="rgb(197,161,87)" stroke="rgb(197,161,87)" stroke-width="1" opacity="0.8823529411764706" d="M 68 330 L 68.5 330 L 73.5 330 L 75 331.5 L 74 332.5 L 74 337.5 L 74 338 L 73.5 338 L 69.5 338 L 68 336.5 L 68 330.5 L 68 330 Z " /><path fill="rgb(197,161,87)" stroke="rgb(197,161,87)" stroke-width="1" opacity="0.8823529411764706" d="M 107.5 339 L 113.5 339 L 115 340.5 L 115 348.5 L 115 349 L 114.5 349 L 106.5 349 L 105 347.5 L 105 340.5 L 105 340 L 106.5 340 L 107.5 339 Z " /><path fill="rgb(105,45,146)" stroke="rgb(105,45,146)" stroke-width="1" opacity="0.26666666666666666" d="M 169 10 Q 169.5 10 171.5 10 L 174 12.5 L 174 13.5 L 176 15.5 Q 174 16.5 176 17.5 L 176 21.5 Q 177.75 22.25 177 25.5 Q 178.25 25.75 178 27.5 L 181.5 31 L 183 31 L 183 33 L 184.5 33 L 187.5 36 L 188.5 36 L 191 38.5 L 191 39.5 L 194 42.5 Q 192.5 43 193 45.5 L 194 46.5 L 194 51.5 L 193 52.5 L 193 100.5 L 194 101.5 L 193.5 102 L 192.5 102 L 191.5 103 L 190.5 103 L 189.5 104 Q 188.25 103.75 188 104.5 L 189.5 106 L 190.5 106 L 193 108.5 Q 192.75 110.25 194 110.5 L 194 147.5 L 193 148.5 L 193 150 L 194.5 150 L 196.5 148 L 198.5 148 L 199.5 147 L 201 147 Q 200.5 144.88 202.5 144 L 203.5 144 Q 203.75 142.75 205.5 143 L 207.5 141 L 209.5 141 L 210.5 140 L 211.5 140 L 212.5 139 Q 213.75 139.25 214 138.5 L 213.5 138 L 210.5 138 L 209 136.5 L 209 135 L 209.5 135 L 213.5 135 L 214.5 134 L 215.5 134 L 218.5 132 L 220.5 132 L 221.5 131 L 222.5 131 Q 222.75 129.75 224.5 130 L 226 128.5 Q 225.75 126.75 227 126.5 L 227 105.5 Q 225 104.5 227 103.5 Q 227.25 101.75 226 101.5 L 226 93.5 L 227 92.5 L 227 82.5 L 226 81.5 Q 226 78.75 226 78 L 224.5 78 L 220.5 74 L 219.5 74 L 217.5 72 L 216.5 72 L 214 69.5 L 214 68.5 L 212 66.5 L 212 64.5 L 211 63.5 L 211 60.5 L 210.5 60 L 210 60.5 L 210 72.5 L 210 73 Q 209.5 73 207.5 73 L 206 71.5 Q 205.5 69 207 68.5 L 206 67.5 Q 206 64.75 206 64 L 208 64 Q 208 63.25 208 60.5 L 209 59.5 Q 209 57.5 209 57 L 213 57 L 213 58.5 L 215 61.5 L 215 63.5 L 216 64.5 L 216 66.5 Q 217.25 66.75 217 68.5 L 219.5 71 Q 221.25 70.75 221.5 72 L 223 72 L 223 74 Q 223.5 74 225.5 74 L 229 77.5 L 229 80.5 Q 230.25 80.75 230 82.5 L 229 83.5 L 229 90.5 L 230 91.5 L 230 95.5 Q 228.75 95.75 229 97.5 L 230 98.5 L 230 127.5 Q 228.75 127.75 229 129.5 L 227.5 131 Q 226.25 130.75 226 131.5 L 226.5 132 L 229.5 132 L 230.5 131 Q 232.25 131.25 232.5 130 L 234.5 130 L 235.5 129 Q 238.25 129 239 129 Q 239 129.5 239 131.5 L 240 132.5 L 240 137.5 Q 238.25 138.25 239 141.5 Q 240.75 142.25 240 145.5 L 236 149.5 L 236.5 150 L 237.5 150 L 239.5 148 Q 240.5 150 241.5 148 L 243.5 148 L 246.5 146 L 249.5 146 L 252 148.5 L 252 188.5 L 252 189 L 250.5 189 L 249.5 190 L 249 189.5 L 249 151.5 L 247.5 150 L 242.5 150 L 241.5 151 Q 239.75 150.75 239.5 152 L 237.5 152 L 234.5 154 L 231.5 154 Q 231 155.5 228.5 155 L 227.5 156 L 226.5 156 L 223.5 158 L 220.5 158 L 219.5 159 L 217.5 159 Q 217 160.5 214.5 160 L 212.5 162 L 209.5 162 L 208.5 163 L 206.5 163 Q 206 164.5 203.5 164 L 201.5 166 L 197.5 166 L 196.5 167 L 194.5 167 L 193.5 168 L 192.5 168 L 189.5 170 L 186.5 170 L 185.5 171 L 184.5 171 L 183.5 172 L 182.5 172 L 181.5 173 L 180.5 173 L 179.5 174 L 178.5 174 Q 178.25 175.25 176.5 175 L 171.5 180 L 168.5 180 L 166 177.5 L 166 176 L 164.5 176 L 162.5 174 L 161.5 174 L 160.5 173 L 159.5 173 L 156.5 171 Q 154 171.5 153.5 170 L 150.5 170 L 148.5 168 L 145.5 168 L 144.5 167 Q 142 167.5 141.5 166 L 138.5 166 L 136.5 164 L 133.5 164 L 130.5 162 L 127.5 162 L 124.5 160 Q 122 160.5 121.5 159 L 118.5 159 L 117.5 158 L 115.5 158 L 112.5 156 Q 110 156.5 109.5 155 L 106.5 155 L 105.5 154 L 103.5 154 L 100.5 152 L 98.5 152 L 97.5 151 Q 95 151.5 94.5 150 Q 91.75 150 91 150 L 91 150.5 L 91 190.5 L 89.5 192 L 88.5 191 Q 87.25 191.25 87 190.5 L 89 187.5 L 88 186.5 L 88 150.5 L 87 149.5 L 87.5 149 L 89 149 L 89 147 Q 89.75 147 92.5 147 L 93.5 146 L 95.5 148 Q 98.75 147.25 99.5 149 L 100.5 148 L 101 148.5 L 101 150 L 103 150 Q 103 149.5 103 147.5 Q 101.75 147.25 102 145.5 Q 103.5 145 103 142.5 L 101 140.5 Q 101.5 138 100 137.5 L 100 131.5 L 100 131 Q 100.5 131 102.5 131 L 103.5 130 L 106.5 130 Q 107 131.5 109.5 131 L 111.5 133 L 114.5 133 L 115.5 134 L 116.5 134 L 119.5 136 L 121.5 136 Q 121.75 137.25 123.5 137 L 125.5 139 Q 128 138.5 128.5 140 L 130.5 140 L 131 139.5 L 130 138.5 L 130 137.5 L 128 135.5 Q 130 134.5 128 133.5 Q 127.75 131.75 129 131.5 L 129 124.5 Q 127.25 123.75 128 120.5 Q 129.75 119.75 129 116.5 L 127 113.5 L 127 111.5 L 128 110.5 L 128 93.5 L 127 92.5 L 127 80.5 L 127 80 L 125.5 80 L 124.5 79 L 121.5 79 L 117.5 83 Q 115.75 82.75 115.5 84 L 113.5 82 Q 112.25 82.25 112 81.5 L 114 79.5 Q 113.25 75.75 115.5 75 Q 117.25 75.25 117.5 74 L 119 74 L 119 72 L 120.5 72 Q 120.75 70.75 122.5 71 L 128 65.5 L 128 63.5 Q 129.5 63 129 60.5 Q 127.75 60.25 128 58.5 L 130.5 56 L 133.5 56 L 135 57.5 Q 134.75 59.25 136 59.5 L 136 61.5 L 138 64.5 L 137 65.5 L 139 67.5 L 139 68.5 L 140.5 70 L 141.5 70 L 145 73.5 L 145 74.5 L 147 76.5 L 147 83.5 Q 145.75 83.75 146 85.5 L 147 86.5 L 147 93.5 Q 145.75 93.75 146 95.5 Q 147.75 96.25 147 99.5 L 146 100.5 L 146 104.5 L 147 105.5 L 147 111.5 L 146 112.5 L 146 143.5 L 145 144.5 Q 145.25 145.75 144.5 146 Q 143.75 144.25 140.5 145 L 140 145.5 L 142.5 148 L 143.5 148 Q 143.75 149.25 145.5 149 L 150.5 154 Q 152.5 154 153 154 L 153 155.5 L 154.5 157 L 155.5 157 L 157 158.5 L 157 159.5 L 161 164.5 L 161 167.5 L 159 169.5 L 159.5 170 L 161.5 170 L 163.5 172 L 165.5 172 L 169 175.5 Q 168.75 176.75 169.5 177 L 170.5 176 L 172 176 Q 171.5 173.88 173.5 173 L 174.5 173 L 175.5 172 L 176.5 172 L 177.5 171 L 178.5 171 L 179.5 170 Q 180.75 170.25 181 169.5 L 180 168.5 L 180 163.5 L 179.5 163 L 178.5 164 L 177 164 L 177 165.5 L 176 166.5 Q 176 168.5 176 169 L 173 169 L 173 171 Q 172.25 171 169.5 171 Q 167.5 170.5 168 167.5 L 168.5 167 L 170.5 169 L 172 167.5 L 172 166 L 174 166 L 174 164.5 L 178 160.5 L 178 159.5 L 183.5 154 L 184.5 154 L 188.5 150 L 190 150 L 190 148.5 L 191 147.5 L 191 110.5 L 188.5 108 L 187.5 108 Q 187.25 106.75 185.5 107 L 183.5 105 L 182.5 105 L 179.5 102 L 178.5 102 L 176.5 100 L 175.5 100 L 172.5 97 L 170.5 97 Q 170.25 98.25 168.5 98 L 166.5 100 L 165.5 100 L 160.5 105 L 159.5 105 Q 159.25 106.25 157.5 106 L 155.5 108 L 154.5 108 L 152 110.5 L 152 112 Q 152.5 112 154.5 112 Q 155.5 112.5 154.5 113 L 152.5 113 L 150.5 115 L 149.5 115 L 148 113.5 L 148 109.5 L 151.5 106 L 152.5 106 Q 152.75 104.75 154.5 105 L 156.5 103 L 157.5 103 L 160.5 100 L 161.5 100 Q 161.75 98.75 163.5 99 L 168.5 94 L 172.5 94 L 173 93.5 L 170.5 91 Q 169.25 91.25 169 90.5 L 170 89.5 L 170 88 L 172 88 L 172 90 L 173.5 90 L 176.5 93 L 177.5 93 L 180.5 96 L 181.5 96 L 186.5 100 Q 189.25 100 190 100 L 190 99.5 L 190 52.5 L 191 51.5 L 191 46.5 L 190 45.5 L 190 41.5 L 186.5 38 L 185.5 38 L 180.5 33 L 179.5 33 L 175 28.5 Q 175.5 26 174 25.5 L 174 20.5 L 172 18.5 Q 172.5 16.5 171.5 16 Q 170.75 16.25 171 17.5 L 170 18.5 L 170 33.5 L 169.5 34 L 167 31.5 Q 167.5 29 166 28.5 L 167 27.5 L 167 20.5 L 168 19.5 L 167 18.5 Q 169 17.5 167 16.5 Q 166.75 14.75 168 14.5 L 168 12.5 L 169 11.5 L 169 10 Z M 133 62 Q 132 63 132 65 L 130 68 L 130 69 L 127 72 L 126 72 L 122 76 L 121 76 L 119 78 L 117 78 L 117 80 Q 117 80 120 80 L 124 76 L 125 76 L 127 74 Q 128 74 129 73 Q 130 73 131 73 Q 131 74 131 77 L 132 78 L 132 137 L 134 138 Q 135 138 136 139 L 137 139 L 139 141 Q 140 141 141 142 L 142 142 L 143 143 L 144 142 L 144 77 L 141 73 L 140 73 L 136 70 Q 136 68 135 68 L 135 67 L 134 66 L 134 64 L 133 62 Z M 235 132 L 232 134 L 231 134 L 230 135 Q 227 135 227 136 L 225 136 L 222 138 L 221 138 L 220 139 L 219 139 L 218 140 L 217 140 L 216 141 L 215 141 L 214 142 L 213 142 L 212 143 L 211 143 L 210 144 L 209 144 L 208 145 L 207 145 L 205 147 L 204 147 L 201 150 L 199 150 L 195 154 L 194 154 L 188 160 L 186 160 L 186 162 L 184 164 L 184 165 L 186 165 L 187 164 L 189 164 L 192 162 L 195 162 L 198 160 L 200 160 Q 200 159 202 159 L 203 158 L 206 158 L 209 156 Q 211 157 212 155 L 214 155 L 215 154 L 219 154 L 222 152 Q 224 153 225 151 L 227 151 L 228 150 L 230 150 L 233 148 L 234 148 L 235 147 L 236 147 L 236 146 L 237 145 L 237 138 Q 239 137 237 136 Q 237 133 237 132 Q 237 132 235 132 Z M 104 133 L 104 134 L 104 141 L 105 142 L 105 146 L 108 148 L 110 148 L 113 150 L 118 150 L 121 152 L 122 152 L 123 153 L 124 153 L 125 154 L 129 154 Q 129 156 132 155 L 135 157 L 136 157 L 137 158 L 141 158 L 144 160 L 146 160 Q 146 161 148 161 L 149 162 L 151 162 L 153 164 Q 155 164 156 164 L 156 163 L 153 159 L 152 159 L 148 155 L 147 155 L 144 152 L 143 152 L 141 150 L 140 150 L 138 148 L 137 148 L 135 146 L 134 146 L 132 144 L 130 144 L 129 143 Q 127 143 127 142 L 126 142 L 124 140 L 122 140 L 119 138 L 118 138 L 116 136 L 113 136 L 112 135 L 110 135 Q 109 134 108 134 L 107 133 Q 104 133 104 133 Z " /><path fill="rgb(105,45,146)" stroke="rgb(105,45,146)" stroke-width="1" opacity="0.26666666666666666" d="M 182.5 46 Q 185.5 45.5 186 47.5 Q 186.75 51.25 184.5 52 Q 181.5 52.5 181 50.5 Q 180.25 46.75 182.5 46 Z " /><path fill="rgb(105,45,146)" stroke="rgb(105,45,146)" stroke-width="1" opacity="0.26666666666666666" d="M 181 70 L 185 70 L 185 71.5 Q 186.25 71.75 186 73.5 Q 185.5 75.5 182.5 75 L 181 73.5 Q 181 70.75 181 70 Z " /><path fill="rgb(105,45,146)" stroke="rgb(105,45,146)" stroke-width="1" opacity="0.26666666666666666" d="M 103.5 98 L 107.5 98 L 110 100.5 L 110 107.5 Q 108.75 107.75 109 109.5 L 105.5 113 L 104.5 113 Q 104.25 114.25 102.5 114 L 100.5 116 Q 98.75 115.75 98.5 117 L 96.5 117 L 95.5 118 L 94.5 118 L 91.5 120 L 89.5 120 L 87.5 122 L 86.5 122 L 85.5 123 L 84.5 123 L 81.5 125 L 79.5 125 L 78.5 126 L 78 125.5 L 79.5 124 L 81.5 124 L 85.5 120 L 87.5 120 L 89.5 118 L 90.5 118 L 92.5 116 L 93.5 116 Q 93.75 114.75 95.5 115 L 97.5 113 Q 99.25 113.25 99.5 112 L 101.5 112 L 107 106.5 Q 106.75 104.75 108 104.5 L 107 103.5 Q 107 101.5 107 101 L 105.5 101 L 104.5 102 L 102.5 102 L 100.5 104 L 99.5 104 Q 99.25 105.25 97.5 105 L 95.5 107 L 94.5 107 L 93.5 108 L 92.5 108 Q 92.25 109.25 90.5 109 L 88.5 111 L 87.5 111 Q 87.25 112.25 85.5 112 L 80.5 116 L 79.5 116 Q 79.25 117.25 77.5 117 L 75.5 119 L 74.5 119 L 69.5 123 L 68.5 123 L 67.5 124 L 66.5 124 Q 66.25 125.25 64.5 125 L 61.5 128 L 60 128 L 60 129.5 L 59 130.5 L 59 164.5 L 60 165.5 L 60 169.5 L 59 170.5 L 59 176.5 L 60 177.5 L 60 183.5 L 58.5 185 L 56 182.5 L 56 127.5 L 57.5 126 L 58.5 126 L 61.5 123 L 62.5 123 L 65.5 121 L 66.5 121 L 69.5 118 L 70.5 118 L 72.5 116 L 73.5 116 L 74.5 115 L 75.5 115 Q 75.75 113.75 77.5 114 L 82.5 110 L 83.5 110 Q 83.75 108.75 85.5 109 L 87.5 107 L 89.5 107 L 92.5 104 L 94.5 104 L 96.5 102 L 97.5 102 L 99.5 100 L 100.5 100 L 103.5 98 Z " /><path fill="rgb(105,45,146)" stroke="rgb(105,45,146)" stroke-width="1" opacity="0.26666666666666666" d="M 231.5 110 L 233.5 112 L 234.5 112 L 235.5 113 L 236.5 113 L 237.5 114 L 238.5 114 L 239.5 115 L 240.5 115 L 241.5 116 L 242.5 116 L 243.5 117 L 244.5 117 L 245.5 118 L 246.5 118 L 247.5 119 L 248.5 119 L 249.5 120 L 250.5 120 L 251.5 121 Q 252.75 120.75 253 121.5 Q 252.75 122.25 251.5 122 L 250.5 121 L 248.5 121 L 247.5 120 L 245.5 120 L 244.5 119 L 242.5 119 Q 242 117.5 239.5 118 L 236.5 116 L 234.5 116 L 233.5 117 L 233 116.5 L 233 113.5 L 231 110.5 L 231.5 110 Z " /><path fill="rgb(105,45,146)" stroke="rgb(105,45,146)" stroke-width="1" opacity="0.26666666666666666" d="M 257.5 125 L 258.5 125 L 263.5 129 L 264.5 129 Q 264.75 130.25 266.5 130 L 270 133.5 Q 269.75 135.25 271 135.5 L 271 141.5 Q 270.5 142.5 270 141.5 L 270 136.5 Q 268.75 136.25 269 134.5 L 264.5 130 L 263.5 130 L 261.5 128 L 260.5 128 L 258.5 126 L 257.5 126 Q 256.5 125.5 257.5 125 Z " /><path fill="rgb(105,45,146)" stroke="rgb(105,45,146)" stroke-width="1" opacity="0.26666666666666666" d="M 237.5 159 L 241.5 159 L 242 159 L 242 160.5 L 243 161.5 Q 243 164.25 243 165 L 241.5 165 L 239.5 163 Q 237.75 163.25 237.5 162 L 233.5 162 L 232.5 163 L 229.5 163 Q 229 164.5 226.5 164 L 223.5 166 L 223 165.5 L 223 164 L 224.5 164 L 225.5 163 L 228.5 163 Q 229 161.5 231.5 162 L 232.5 161 Q 234.25 161.25 234.5 160 L 236.5 160 L 237.5 159 Z " /><path fill="rgb(105,45,146)" stroke="rgb(105,45,146)" stroke-width="1" opacity="0.26666666666666666" d="M 281.5 163 L 282 163.5 L 282 171.5 Q 281.5 172.5 281 171.5 L 281 163.5 L 281.5 163 Z " /><path fill="rgb(105,45,146)" stroke="rgb(105,45,146)" stroke-width="1" opacity="0.26666666666666666" d="M 281.5 174 L 282 174.5 L 282 221.5 Q 281.5 222.5 281 221.5 L 281 174.5 L 281.5 174 Z " /><path fill="rgb(105,45,146)" stroke="rgb(105,45,146)" stroke-width="1" opacity="0.26666666666666666" d="M 162.5 326 L 163.5 327 L 165 327 L 165 331 Q 165.75 331 168.5 331 L 171.5 334 L 172.5 334 L 173.5 335 Q 174.75 334.75 175 335.5 L 174.5 336 L 167.5 336 Q 167.25 334.75 165.5 335 L 162.5 332 L 161.5 332 L 159.5 330 L 158 330 Q 157.5 327.88 159.5 327 Q 162 327.5 162.5 326 Z " /><path fill="rgb(156,57,215)" stroke="rgb(156,57,215)" stroke-width="1" opacity="0.9176470588235294" d="M 171.5 18 L 174 20.5 L 174 25.5 Q 175.5 26 175 28.5 L 179.5 33 L 180.5 33 L 185.5 38 L 186.5 38 L 190 41.5 L 190 45.5 L 191 46.5 L 191 51.5 L 190 52.5 L 190 99.5 L 190 100 Q 189.25 100 186.5 100 L 184.5 98 L 183.5 98 L 181.5 96 L 180.5 96 L 177.5 93 L 176.5 93 L 173.5 90 L 172 90 Q 172 89.5 172 87.5 L 171 86.5 L 171 34.5 L 170 33.5 L 170 19.5 L 171.5 18 Z M 183 46 Q 180 47 181 51 Q 182 53 185 52 Q 187 51 186 48 Q 186 46 183 46 Z M 181 70 Q 181 71 181 74 L 183 75 Q 186 75 186 74 Q 186 72 185 72 L 185 70 L 181 70 Z " /><path fill="rgb(156,57,215)" stroke="rgb(156,57,215)" stroke-width="1" opacity="0.9176470588235294" d="M 132 63 L 134 63 Q 134 63.5 134 65.5 L 135 66.5 L 135 67.5 Q 136.25 67.75 136 69.5 L 139.5 73 L 140.5 73 L 144 76.5 L 144 140.5 L 142.5 142 L 140.5 142 Q 140.25 140.75 138.5 141 L 136.5 139 L 135.5 139 Q 135.25 137.75 133.5 138 L 132 136.5 L 132 77.5 L 131 76.5 Q 131 73.75 131 73 Q 130.5 73 128.5 73 Q 128.25 74.25 126.5 74 L 124.5 76 Q 123.5 75.5 124 73.5 L 125.5 72 L 126.5 72 L 130 68.5 L 130 67.5 L 132 64.5 L 132 63 Z " /><path fill="rgb(156,57,215)" stroke="rgb(156,57,215)" stroke-width="1" opacity="0.9176470588235294" d="M 210 64 L 212 64 Q 212 64.5 212 66.5 L 214 68.5 L 214 69.5 L 216.5 72 L 217.5 72 L 219.5 74 L 220.5 74 L 224.5 78 L 226 78 Q 226 78.75 226 81.5 L 227 82.5 L 227 92.5 L 226 93.5 L 226 101.5 Q 227.25 101.75 227 103.5 Q 225 104.5 227 105.5 L 227 126.5 Q 225.75 126.75 226 128.5 L 224.5 130 L 223.5 130 L 220.5 132 L 218.5 132 L 217.5 133 L 216.5 133 L 215.5 134 L 214.5 134 Q 214.25 135.25 212.5 135 L 211 133.5 Q 211.25 131.75 210 131.5 L 210 127.5 L 211 126.5 L 211 108.5 L 210 107.5 L 210 103.5 L 211 102.5 L 211 78.5 L 210 77.5 L 210 64.5 L 210 64 Z M 219 91 L 217 93 L 217 97 L 217 97 L 219 97 Q 219 98 221 98 L 222 97 L 222 93 Q 222 91 219 91 Z " /><path fill="rgb(156,57,215)" stroke="rgb(156,57,215)" stroke-width="1" opacity="0.9176470588235294" d="M 170.5 97 L 172.5 97 L 175.5 100 L 176.5 100 L 178.5 102 L 179.5 102 L 182.5 105 L 183.5 105 L 185.5 107 L 186.5 107 Q 186.75 108.25 188.5 108 L 191 110.5 L 191 147.5 L 190 148.5 L 190 150 L 188.5 150 L 184.5 154 L 183.5 154 L 178 159.5 L 178 160.5 L 174 164.5 L 174 166 Q 173.5 166 171.5 166 L 170 164.5 Q 169.75 162.75 171 162.5 L 171 106.5 L 170 105.5 L 170 104 L 169.5 104 L 165.5 104 L 162.5 106 L 161.5 105 L 156.5 110 Q 154 109.5 153.5 111 Q 152.75 110.75 153 109.5 L 154.5 108 L 155.5 108 L 157.5 106 L 158.5 106 Q 158.75 104.75 160.5 105 L 165.5 100 L 166.5 100 L 168.5 98 Q 170.25 98.25 170.5 97 Z " /><path fill="rgb(156,57,215)" stroke="rgb(156,57,215)" stroke-width="1" opacity="0.9176470588235294" d="M 105.5 101 L 107 101 Q 107 101.5 107 103.5 Q 109 104.5 107 105.5 L 107 106.5 L 101.5 112 L 99.5 112 Q 99.25 113.25 97.5 113 L 95.5 115 L 94.5 115 L 93.5 116 L 92.5 116 L 91.5 117 L 90.5 117 Q 90.25 118.25 88.5 118 L 86.5 120 L 85.5 120 Q 85.25 121.25 83.5 121 L 81.5 123 L 79.5 123 L 78.5 124 L 77.5 124 L 76.5 125 L 75.5 125 L 72.5 127 L 70.5 127 Q 70.25 128.25 68.5 128 L 66 130.5 Q 66.25 132.25 65 132.5 L 65 146.5 L 66 147.5 L 66 164.5 Q 64.5 165 65 167.5 L 66 168.5 L 66 176.5 Q 64.75 176.75 65 178.5 L 66 179.5 L 61.5 184 Q 60.75 183.75 61 182.5 L 60 181.5 L 60 177.5 L 59 176.5 L 59 170.5 L 60 169.5 L 60 165.5 L 59 164.5 L 59 130.5 L 60 129.5 L 60 128 L 61.5 128 L 64.5 125 L 65.5 125 L 66.5 124 L 67.5 124 Q 67.75 122.75 69.5 123 L 71.5 121 L 72.5 121 L 77.5 117 L 78.5 117 Q 78.75 115.75 80.5 116 L 85.5 112 L 86.5 112 Q 86.75 110.75 88.5 111 L 90.5 109 L 91.5 109 L 92.5 108 L 93.5 108 Q 93.75 106.75 95.5 107 L 97.5 105 L 98.5 105 Q 98.75 103.75 100.5 104 L 102.5 102 Q 105 102.5 105.5 101 Z " /><path fill="rgb(156,57,215)" stroke="rgb(156,57,215)" stroke-width="1" opacity="0.9176470588235294" d="M 234.5 132 Q 236.5 132 237 132 Q 237 132.75 237 135.5 Q 239 136.5 237 137.5 L 237 144.5 L 236 145.5 L 236 147 L 234.5 147 L 233.5 148 L 232.5 148 L 229.5 150 L 227.5 150 L 226.5 151 L 224.5 151 Q 224 152.5 221.5 152 L 218.5 154 L 214.5 154 L 213.5 155 L 211.5 155 Q 211 156.5 208.5 156 L 205.5 158 L 202.5 158 L 201.5 159 Q 199.75 158.75 199.5 160 L 197.5 160 L 194.5 162 L 191.5 162 L 188.5 164 L 186.5 164 L 185.5 165 L 184 165 L 184 163.5 L 186 161.5 L 186 160 L 187.5 160 L 193.5 154 L 194.5 154 L 198.5 150 L 200.5 150 L 203.5 147 L 204.5 147 L 206.5 145 L 207.5 145 L 208.5 144 L 209.5 144 L 210.5 143 L 211.5 143 L 212.5 142 L 213.5 142 L 214.5 141 L 215.5 141 L 216.5 140 L 217.5 140 L 218.5 139 L 219.5 139 L 220.5 138 L 221.5 138 L 224.5 136 L 226.5 136 Q 227 134.5 229.5 135 L 230.5 134 L 231.5 134 L 234.5 132 Z " /><path fill="rgb(156,57,215)" stroke="rgb(156,57,215)" stroke-width="1" opacity="0.9176470588235294" d="M 105.5 133 L 106.5 133 L 109.5 135 L 111.5 135 L 112.5 136 L 115.5 136 L 117.5 138 L 118.5 138 L 121.5 140 L 123.5 140 L 125.5 142 L 126.5 142 Q 126.75 143.25 128.5 143 L 129.5 144 L 131.5 144 L 133.5 146 L 134.5 146 L 136.5 148 L 137.5 148 L 139.5 150 L 140.5 150 L 142.5 152 L 143.5 152 L 146.5 155 L 147.5 155 L 151.5 159 L 152.5 159 L 156 162.5 L 156 164 Q 155.25 164 152.5 164 L 150.5 162 L 148.5 162 L 147.5 161 Q 145.75 161.25 145.5 160 L 143.5 160 L 140.5 158 L 136.5 158 L 134.5 156 Q 132.75 156.25 132.5 155 Q 129.25 155.75 128.5 154 L 124.5 154 L 123.5 153 L 122.5 153 L 121.5 152 L 120.5 152 L 117.5 150 L 112.5 150 L 109.5 148 L 107.5 148 L 106 146.5 Q 106.25 144.75 105 144.5 L 105 141.5 L 104 140.5 L 104 134.5 L 105.5 133 Z " /><path fill="rgb(156,57,215)" stroke="rgb(156,57,215)" stroke-width="1" opacity="0.9176470588235294" d="M 91 150 Q 91.75 150 94.5 150 L 95.5 151 L 97.5 151 Q 98 152.5 100.5 152 L 103.5 154 Q 106 153.5 106.5 155 L 109.5 155 L 110.5 156 L 112.5 156 L 115.5 158 Q 118 157.5 118.5 159 L 121.5 159 L 122.5 160 L 124.5 160 L 127.5 162 L 130.5 162 L 133.5 164 L 136.5 164 L 138.5 166 L 141.5 166 L 142.5 167 Q 145 166.5 145.5 168 L 148.5 168 L 150.5 170 L 153.5 170 Q 154 171.5 156.5 171 L 157.5 172 L 158.5 172 L 159.5 173 L 160.5 173 Q 160.75 174.25 162.5 174 L 164.5 176 L 166 176 L 166 177.5 L 168.5 180 L 171.5 180 L 176.5 175 L 177.5 175 L 178.5 174 L 179.5 174 L 180.5 173 L 181.5 173 L 182.5 172 L 183.5 172 L 186.5 170 L 189.5 170 L 190.5 169 L 191.5 169 L 194.5 167 L 196.5 167 L 197.5 166 L 201.5 166 L 203.5 164 L 205.5 164 L 206.5 163 Q 209 163.5 209.5 162 L 212.5 162 L 214.5 160 L 216.5 160 L 217.5 159 Q 220 159.5 220.5 158 L 223.5 158 L 224.5 157 L 225.5 157 L 228.5 155 Q 231 155.5 231.5 154 L 234.5 154 L 235.5 153 Q 237.25 153.25 237.5 152 L 239.5 152 L 242.5 150 L 247.5 150 L 249 151.5 L 249 189.5 L 248.5 190 L 247.5 189 L 246.5 190 Q 244.75 189.75 244.5 191 L 244 190.5 L 244 168.5 L 243 167.5 L 243 161.5 L 242 160.5 L 242 159 L 241.5 159 L 237.5 159 L 236.5 160 L 234.5 160 L 231.5 162 L 228.5 162 L 227.5 163 L 225.5 163 L 224.5 164 L 222.5 164 L 221.5 165 Q 219 164.5 218.5 166 L 215.5 166 Q 214.75 167.75 211.5 167 L 210.5 168 L 208.5 168 L 207.5 169 L 205.5 169 L 204.5 170 L 202.5 170 Q 202 171.5 199.5 171 L 196.5 173 L 194.5 173 L 193.5 174 L 191.5 174 Q 191 175.5 188.5 175 L 185.5 177 L 183.5 177 L 182.5 178 L 181.5 178 Q 181.25 179.25 179.5 179 L 175 183.5 Q 175.25 185.25 174 185.5 L 174 187.5 L 173 188.5 L 173 193.5 L 172 194.5 L 172 264.5 L 169.5 267 L 169 266.5 L 169 263.5 L 168 262.5 L 168 191.5 L 167 190.5 L 167 186.5 Q 165.75 186.25 166 184.5 L 160.5 179 L 159.5 179 L 157.5 177 L 155.5 177 L 152.5 175 L 150.5 175 L 149.5 174 L 147.5 174 L 146.5 173 L 144.5 173 L 143.5 172 L 141.5 172 L 140.5 171 L 138.5 171 Q 138 169.5 135.5 170 L 134.5 169 Q 132.75 169.25 132.5 168 L 130.5 168 L 127.5 166 L 125.5 166 Q 125 164.5 122.5 165 L 121.5 164 L 120.5 164 L 119.5 163 L 118.5 163 L 115.5 161 L 112.5 161 L 109.5 159 L 107.5 159 L 106.5 158 Q 104 158.5 103.5 157 L 98.5 157 L 97.5 158 L 96 158 L 96 159.5 L 95 160.5 L 95 184.5 L 94 185.5 L 94 190.5 L 92.5 192 Q 90.63 192.5 91 191.5 L 91 150.5 L 91 150 Z " /></svg>